<svg xmlns="http://www.w3.org/2000/svg" viewBox="0 0 200 200"><defs><style>.cls-1{fill:#f4f4f4;}.cls-2{fill:#fff;}.cls-3{fill:#febccb;}.cls-4{fill:#021d49;}</style></defs><g id="Capa_2" data-name="Capa 2"><path class="cls-1" d="M37.17,23.15s0-5.23,7.11-4.39L169.61,67.32a13.74,13.74,0,0,1,8.73,14l-8.79,102s-1.67,2.09-5.86,2.09L44.91,128.8s-5.36-1.86-6-11.05S37.17,23.15,37.17,23.15Z"/><path class="cls-2" d="M113.4,131.49l-.66,18.63a2.7,2.7,0,0,0,1.32,2.32l39.67,18.63a2.69,2.69,0,0,0,4-2l1.65-15.19a2.67,2.67,0,0,0-1.39-2.65l-40.66-22.08A2.68,2.68,0,0,0,113.4,131.49Z"/><path class="cls-3" d="M37.77,32.37,171,89.24l6.86-2.56-1.66,20.12s-2.46,3.54-6.23,2.86l-131-59Z"/></g><g id="Capa_3" data-name="Capa 3"><path class="cls-4" d="M37.05,23.59l10.29,4.07,25.48,10.1,32.52,12.89L137,63.18l22.82,9,5.55,2.2.86.34a8.35,8.35,0,0,1,5.12,8.33c-.31,5-.79,10-1.18,15l-2.55,32.3-2.68,34.09-1.58,20-.08.95.68-.39-9.41-4.49-23.34-11.13-29.8-14.21-29-13.85L51.24,131.32,46,128.84a11.34,11.34,0,0,1-6.54-9.47c-.25-4.48-.18-9-.26-13.48l-.6-30.39L38,43.12l-.38-19.06v-.91a.45.45,0,0,0-.9,0L37,36.81l.61,30.71.63,32.39.37,18.73a12.25,12.25,0,0,0,6.1,10.55c.89.47,1.83.87,2.74,1.3l17.71,8.45L93,152.21l30.52,14.55,25.77,12.29,13.58,6.48.63.3a.45.45,0,0,0,.67-.39l1.14-14.39,2.56-32.44,2.7-34.28,1.6-20.25c0-.4.06-.79.08-1.19a9.22,9.22,0,0,0-5.78-9c-.92-.38-1.84-.73-2.76-1.1l-19.1-7.57-30.25-12L81.06,40.06,52.82,28.87,38,23l-.66-.26C36.75,22.5,36.51,23.37,37.05,23.59Z"/><path class="cls-4" d="M37.62,23.15c0-3.33,4.28-4.83,7-3.77l5.29,2.05,23.87,9.24,33.39,12.94L140.46,56.5,164,65.62c1.7.66,3.41,1.31,5.11,2a13.55,13.55,0,0,1,8.79,13.72c-.39,5.27-.91,10.54-1.36,15.8l-2.94,34.09-3,34.63-1,12a36.88,36.88,0,0,0-.47,5.44s0,.07,0,.1c.06-.48.13-.22-.22,0a8.63,8.63,0,0,1-5.19,1.61.45.45,0,0,0,0,.9,9.45,9.45,0,0,0,5.24-1.43,2.32,2.32,0,0,0,1.07-1.12,7.7,7.7,0,0,0,.12-1.35l.74-8.62,2.78-32.24,3.17-36.83,1.9-22c.42-4.92-1-9.7-4.87-13a20.84,20.84,0,0,0-6.21-3.25l-19.94-7.72L115.08,45.71,80.15,32.18,53.23,21.75,46,19c-.49-.19-1-.42-1.47-.57a7.24,7.24,0,0,0-5.88,1,4.9,4.9,0,0,0-1.94,3.74.45.45,0,0,0,.9,0Z"/><path class="cls-4" d="M113,131.49l-.54,15c-.06,1.73-.59,4.24.66,5.66a8.63,8.63,0,0,0,2.89,1.64l31.3,14.7,5.15,2.42c1.42.66,2.84,1.41,4.37.46,1.79-1.13,1.6-3.88,1.8-5.73l1-9.35c.22-2.05.76-4.22-1.36-5.52-.88-.54-1.82-1-2.72-1.48l-14.32-7.77-16.5-9-5.43-2.95a7.42,7.42,0,0,0-3.13-1.3,3.18,3.18,0,0,0-3.19,3.14c0,.58.86.57.9,0a2.27,2.27,0,0,1,3.41-1.91c.35.17.69.38,1,.56l4.64,2.52,15,8.13,14.88,8.08,4.19,2.28c.26.14.54.27.79.43a2.56,2.56,0,0,1,1.16,2.69c-.49,4.83-.9,9.72-1.59,14.53a2.29,2.29,0,0,1-3.39,1.88l-.68-.32-4.25-2-30.41-14.28c-1.3-.61-2.62-1.19-3.9-1.83-1.44-.72-1.53-2-1.48-3.42l.57-15.92,0-1.42C113.87,130.91,113,130.91,113,131.49Z"/><path class="cls-4" d="M37.54,32.76,52.14,39l34.3,14.61,40.34,17.18,32.82,14,9.14,3.89c.67.29,1.34.6,2,.87,1.08.42,2.41-.32,3.41-.73,1.64-.67,3.4-1.61,4.22-3.26.26-.52-.52-1-.78-.46-.92,1.85-3.19,2.76-5.05,3.36-.46.14-.93.24-1.39.39.31-.11.44.11.27,0-.48-.26-1-.43-1.52-.64l-8.16-3.48L130.68,71.46l-39.86-17-35.26-15C49.8,37,44.08,34.36,38.25,32.09L38,32c-.53-.22-1,.55-.46.78Z"/><path class="cls-4" d="M38.72,50.7,53,57.19,86.53,72.44l39.56,18,32,14.58,9,4.08c.67.3,1.34.63,2,.91a5.19,5.19,0,0,0,3.18-.2,6,6,0,0,0,4.22-2.77c.25-.51-.52-1-.78-.45-.9,1.79-3.18,2.35-5,2.61-.2,0-1.34,0-.86.17l-.09,0a12.21,12.21,0,0,1-1.52-.69l-8.12-3.69L129.65,91.06,90.75,73.37,56.37,57.74,44.86,52.51c-1.8-.82-3.6-1.8-5.46-2.49a1.15,1.15,0,0,1-.23-.1c-.52-.24-1,.54-.45.78Z"/></g></svg>