<svg xmlns="http://www.w3.org/2000/svg" viewBox="0 0 200 200"><defs><style>.cls-1{fill:#97b8e8;}.cls-2{fill:#021d49;}</style></defs><g id="Capa_3" data-name="Capa 3"><path class="cls-1" d="M60,112.31c2.24,4.36,7.76,8.34,12.27,8.86l14.26,1.65c4.51.52,5.77,3.92,2.79,7.55L79.7,142.15c-3,3.63-4.55,10.55-3.49,15.38l3.49,16.05c.49,2.25,3.13,4.41,2.28,5.35s-5.65.67-7.86-.49L61,171.55c-4.12-2.15-10.62-1.85-14.44.67l-9.64,9-2.62.11c-.24.19-.61-.27-.86-.13-3,1.72-5.67-.68-5.27-5.21l1.46-16.27c.44-4.9-2-11.64-5.41-15L13.11,133.89c-3.42-3.34-2.59-6.83,1.82-7.76l14-2.95c4.41-.94,9.4-5.41,11.08-9.94L45.51,98.3c1.68-4.53,10.68-5,12.92-.6Z"/><path class="cls-2" d="M31.72,181.21a2.63,2.63,0,0,1-1.94-.39c-1.06-.75-1.54-2.39-1.34-4.62l1.46-16.28c.44-5-2-11.85-5.52-15.26L13.32,133.84c-1.56-1.53-2.24-3.11-1.93-4.45s1.6-2.31,3.62-2.74l14-3c4.52-1,9.59-5.5,11.3-10.14l5.53-14.93c.77-2.08,1.87-3.25,3.1-3.3h0l0-.67h0c-1.49,0-2.78,1.37-3.64,3.7L39.71,113.3c-1.65,4.45-6.52,8.82-10.86,9.74l-14,2.95c-2.26.48-3.71,1.62-4.08,3.22s.37,3.42,2.12,5.12L24,145.15c3.35,3.28,5.73,9.87,5.3,14.69l-1.45,16.27c-.23,2.51.35,4.38,1.62,5.27a3,3,0,0,0,1.91.54,4.38,4.38,0,0,0,1.09-.19A1,1,0,0,1,31.72,181.21Z"/><path class="cls-2" d="M77.73,179.11h-.06a1,1,0,0,1-.25,0,5.38,5.38,0,0,1-3.16-.76l-13.17-6.89c-4.21-2.2-10.82-1.9-14.74.68L35.91,179a1.16,1.16,0,0,1,.27.62l10.5-6.93a15.4,15.4,0,0,1,14.16-.65L74,178.94c1.77.93,3.33,1.11,4.46.54a1.33,1.33,0,0,1-.3-.23A.92.92,0,0,1,77.73,179.11Z"/><path class="cls-2" d="M91,125.5c-.58-1.56-2.16-2.56-4.46-2.82L72.31,121l0,.67,14.27,1.65c2.06.23,3.46,1.08,3.94,2.39s0,2.93-1.36,4.59l-9.63,11.78c-3,3.71-4.64,10.75-3.56,15.69l3.49,16a7.57,7.57,0,0,1,.14,3,1,1,0,0,1,.61.14,8.41,8.41,0,0,0-.15-3.3l-3.49-16c-1-4.75.5-11.52,3.42-15.09l9.64-11.78C91.09,128.93,91.61,127.05,91,125.5Z"/><path class="cls-1" d="M67.47,112.22c2.24,4.35,7.76,8.34,12.27,8.86L94,122.73c4.5.52,5.76,3.91,2.79,7.55l-9.64,11.78c-3,3.63-4.54,10.55-3.49,15.38l3.5,16.05c1,4.83-1.46,7-5.58,4.86l-13.17-6.89c-4.12-2.15-10.62-1.85-14.45.67l-12.22,8.06c-3.83,2.53-6.6.58-6.16-4.32L37,159.6c.44-4.9-2-11.64-5.4-15L20.57,133.8C17.16,130.46,18,127,22.4,126l14-3c4.42-.94,9.4-5.41,11.08-9.94L53,98.21c1.68-4.53,4.88-4.68,7.12-.33Z"/><path class="cls-2" d="M38.56,181.65a3.11,3.11,0,0,1-1.9-.54c-1.27-.9-1.85-2.77-1.63-5.27l1.46-16.27c.43-4.82-2-11.41-5.31-14.69L20.12,134.06c-1.74-1.71-2.5-3.53-2.12-5.13s1.82-2.74,4.08-3.21l14-3c4.33-.92,9.21-5.29,10.86-9.75l5.52-14.93c.86-2.32,2.14-3.64,3.62-3.7h0c1.47,0,2.9,1.14,4,3.35l7.37,14.34c2.2,4.28,7.6,8.18,12,8.69l14.27,1.64c2.3.27,3.89,1.27,4.46,2.83s.06,3.43-1.46,5.28l-9.64,11.78c-2.92,3.57-4.45,10.34-3.42,15.09l3.49,16.05c.54,2.47.2,4.38-.95,5.38s-2.94,1-5.05-.15L68,171.77c-4.05-2.11-10.4-1.82-14.15.66l-12.23,8.06A6.29,6.29,0,0,1,38.56,181.65ZM56.12,95.06h0c-1.23,0-2.32,1.22-3.09,3.29l-5.52,14.94c-1.72,4.64-6.79,9.18-11.3,10.14l-14,2.95c-2,.42-3.3,1.4-3.61,2.74s.37,2.92,1.92,4.44l11.07,10.82c3.48,3.41,6,10.26,5.51,15.27l-1.45,16.27c-.2,2.24.27,3.88,1.33,4.62s2.61.52,4.35-.63l12.23-8.06c3.91-2.58,10.52-2.89,14.73-.68l13.17,6.89c1.88,1,3.45,1.06,4.41.22s1.23-2.51.74-4.71l-3.49-16c-1.08-4.93.52-12,3.56-15.68l9.64-11.78c1.35-1.66,1.83-3.29,1.35-4.6s-1.88-2.15-3.94-2.39l-14.26-1.64c-4.61-.54-10.23-4.59-12.51-9L59.58,98.05C58.57,96.07,57.34,95,56.12,95.06Z"/><polygon class="cls-2" points="56.54 95.06 48.68 95.34 48.64 94.67 56.5 94.38 56.54 95.06"/><polygon class="cls-2" points="38.43 181.63 30.98 181.9 30.94 181.23 38.39 180.96 38.43 181.63"/><polygon class="cls-2" points="84.08 179.53 77.54 179.77 77.5 179.1 84.05 178.86 84.08 179.53"/><path class="cls-1" d="M152.53,107.47c2.24,4.35,7.76,8.34,12.27,8.86L179.06,118c4.51.52,5.77,3.92,2.8,7.56l-9.64,11.77c-3,3.64-4.54,10.56-3.49,15.39l3.49,16.05c.49,2.24,3.14,4.41,2.28,5.34s-5.65.67-7.85-.48l-13.18-6.89c-4.12-2.16-10.62-1.85-14.44.67l-9.63,9-2.62.11c-.25.19-.62-.27-.86-.13-3,1.73-5.68-.67-5.27-5.2l1.45-16.27c.44-4.9-2-11.64-5.41-15l-11.06-10.82c-3.41-3.34-2.59-6.83,1.82-7.77l14-3c4.42-.93,9.4-5.4,11.08-9.94L138,93.46c1.67-4.54,10.68-4.95,12.91-.6Z"/><path class="cls-2" d="M124.24,176.37a2.65,2.65,0,0,1-1.94-.39c-1.06-.75-1.54-2.39-1.34-4.63l1.46-16.27c.45-5-2-11.85-5.51-15.27L105.84,129c-1.56-1.52-2.24-3.1-1.93-4.44s1.6-2.32,3.62-2.74l14-3c4.51-1,9.58-5.5,11.3-10.14l5.52-14.94c.77-2.08,1.87-3.25,3.11-3.29h0l0-.68h0c-1.48.05-2.78,1.36-3.64,3.7l-5.53,14.93c-1.65,4.46-6.52,8.83-10.86,9.75l-14,3c-2.26.47-3.71,1.62-4.08,3.22s.37,3.41,2.12,5.12l11.06,10.82c3.36,3.28,5.73,9.87,5.3,14.69l-1.45,16.27c-.22,2.51.35,4.38,1.63,5.27a3.1,3.1,0,0,0,1.9.54,5,5,0,0,0,1.1-.19A1.06,1.06,0,0,1,124.24,176.37Z"/><path class="cls-2" d="M170.25,174.26h-.06l-.25,0a5.47,5.47,0,0,1-3.16-.76l-13.17-6.89c-4.21-2.2-10.82-1.9-14.73.68l-10.44,6.89a1.16,1.16,0,0,1,.26.62l10.51-6.93c3.75-2.48,10.1-2.77,14.15-.65l13.17,6.89c1.78.93,3.33,1.1,4.46.54a1.33,1.33,0,0,1-.3-.23A.92.92,0,0,1,170.25,174.26Z"/><path class="cls-2" d="M183.56,120.66c-.57-1.56-2.16-2.56-4.46-2.83l-14.27-1.64-.05.67,14.27,1.64c2.06.24,3.46,1.09,3.94,2.39s0,2.94-1.36,4.6L172,137.27C169,141,167.36,148,168.44,153L171.93,169a7.56,7.56,0,0,1,.14,3,1,1,0,0,1,.61.14,8.41,8.41,0,0,0-.15-3.3L169,152.81c-1-4.75.5-11.51,3.42-15.09L182.1,126C183.62,124.09,184.14,122.21,183.56,120.66Z"/><path class="cls-1" d="M160,107.38c2.23,4.35,7.75,8.34,12.26,8.86l14.27,1.64c4.51.52,5.76,3.92,2.79,7.55l-9.64,11.78c-3,3.64-4.54,10.56-3.49,15.39l3.5,16.05c1.05,4.83-1.46,7-5.58,4.86l-13.17-6.89c-4.12-2.16-10.62-1.86-14.44.67l-12.23,8.06c-3.83,2.52-6.6.58-6.16-4.32l1.46-16.27c.43-4.9-2-11.64-5.41-15L113.09,129c-3.41-3.34-2.59-6.83,1.83-7.77l14-3c4.42-.93,9.41-5.4,11.08-9.94l5.53-14.93c1.68-4.54,4.88-4.69,7.12-.33Z"/><path class="cls-2" d="M131.08,176.8a3,3,0,0,1-1.9-.54c-1.27-.89-1.85-2.76-1.63-5.26L129,154.72c.43-4.81-1.95-11.4-5.31-14.68l-11.06-10.82c-1.74-1.71-2.49-3.53-2.12-5.13s1.83-2.74,4.08-3.22l14-3c4.34-.91,9.21-5.28,10.86-9.74L145,93.24c.86-2.32,2.14-3.63,3.62-3.7h0c1.47-.05,2.9,1.14,4,3.35L160,107.23c2.2,4.28,7.6,8.17,12,8.68l14.26,1.65c2.3.26,3.89,1.27,4.46,2.82s.06,3.44-1.46,5.29l-9.63,11.78c-2.93,3.57-4.46,10.34-3.43,15.09l3.5,16c.53,2.47.2,4.39-1,5.39s-2.94.95-5.05-.15l-13.17-6.89a15.38,15.38,0,0,0-14.15.66l-12.23,8.06A6.17,6.17,0,0,1,131.08,176.8Zm17.56-86.59h0c-1.22,0-2.32,1.22-3.08,3.29L140,108.45c-1.72,4.63-6.79,9.18-11.3,10.13l-14,3c-2,.43-3.3,1.4-3.61,2.75s.37,2.92,1.93,4.44l11.06,10.82c3.49,3.41,6,10.26,5.51,15.27l-1.45,16.27c-.2,2.24.27,3.88,1.33,4.62s2.61.52,4.35-.63L146.08,167c3.91-2.58,10.52-2.89,14.74-.68L174,173.22c1.88,1,3.44,1.06,4.4.22s1.23-2.51.75-4.72l-3.5-16c-1.07-4.94.52-12,3.56-15.69l9.64-11.77c1.35-1.66,1.84-3.29,1.35-4.6s-1.88-2.15-3.94-2.39L172,116.58c-4.61-.53-10.22-4.58-12.51-9L152.1,93.21C151.09,91.23,149.86,90.17,148.64,90.21Z"/><polygon class="cls-2" points="149.06 90.21 141.2 90.5 141.16 89.82 149.02 89.54 149.06 90.21"/><polygon class="cls-2" points="130.95 176.79 123.5 177.06 123.46 176.39 130.91 176.12 130.95 176.79"/><polygon class="cls-2" points="176.61 174.69 170.06 174.93 170.03 174.25 176.57 174.02 176.61 174.69"/><path class="cls-1" d="M102.05,36.7c2.24,4.35,7.76,8.34,12.27,8.86l14.26,1.64c4.51.52,5.77,3.92,2.79,7.55l-9.63,11.78c-3,3.63-4.55,10.56-3.49,15.39l3.49,16c.49,2.25,3.13,4.42,2.28,5.35s-5.66.67-7.86-.48L103,95.94c-4.12-2.16-10.62-1.86-14.44.66l-9.64,9-2.62.11c-.24.19-.61-.27-.86-.13-3,1.72-5.67-.67-5.27-5.2l1.46-16.28c.44-4.9-2-11.64-5.41-15L55.15,58.28c-3.42-3.34-2.59-6.84,1.82-7.77l14-2.95c4.41-.93,9.4-5.4,11.08-9.94l5.52-14.94c1.68-4.53,10.68-4.95,12.92-.59Z"/><path class="cls-2" d="M73.76,105.59a2.54,2.54,0,0,1-1.94-.39c-1.06-.74-1.54-2.38-1.34-4.62l1.46-16.27c.44-5-2-11.86-5.52-15.27L55.36,58.22c-1.56-1.52-2.24-3.1-1.93-4.44S55,51.46,57.05,51l14-3c4.52-.95,9.59-5.5,11.3-10.13L87.85,23c.77-2.08,1.87-3.25,3.1-3.29h0l0-.68h0c-1.49.06-2.78,1.37-3.64,3.7L81.75,37.68c-1.65,4.46-6.52,8.83-10.86,9.74l-14,2.95c-2.26.48-3.71,1.62-4.08,3.22S53.21,57,55,58.72L66,69.54c3.35,3.28,5.73,9.87,5.3,14.68L69.87,100.5c-.23,2.5.35,4.37,1.62,5.27a3.07,3.07,0,0,0,1.91.53,4.35,4.35,0,0,0,1.09-.18A1.07,1.07,0,0,1,73.76,105.59Z"/><path class="cls-2" d="M119.77,103.49h-.06a1,1,0,0,1-.25,0,5.36,5.36,0,0,1-3.16-.75l-13.17-6.89c-4.21-2.21-10.82-1.9-14.74.68L78,103.39a1.16,1.16,0,0,1,.27.62l10.5-6.92c3.76-2.48,10.11-2.77,14.16-.66l13.17,6.89c1.77.93,3.33,1.11,4.46.54a.93.93,0,0,1-.3-.23A.88.88,0,0,1,119.77,103.49Z"/><path class="cls-2" d="M133.08,49.88c-.58-1.55-2.16-2.55-4.46-2.82l-14.27-1.64,0,.66,14.27,1.65c2.06.24,3.45,1.09,3.94,2.39s0,2.94-1.36,4.6l-9.64,11.77c-3,3.72-4.63,10.75-3.55,15.69l3.49,16a7.56,7.56,0,0,1,.14,3,1,1,0,0,1,.61.14,8.4,8.4,0,0,0-.15-3.3l-3.49-16c-1-4.75.5-11.52,3.42-15.09l9.64-11.78C133.13,53.32,133.65,51.44,133.08,49.88Z"/><path class="cls-1" d="M109.51,36.61c2.24,4.35,7.76,8.34,12.27,8.86l14.27,1.64c4.5.52,5.76,3.92,2.79,7.55L129.2,66.44c-3,3.63-4.54,10.56-3.49,15.39l3.5,16c1,4.83-1.46,7-5.58,4.87l-13.17-6.89C106.34,93.69,99.84,94,96,96.51l-12.22,8.07c-3.83,2.52-6.6.58-6.16-4.32L79.08,84c.44-4.9-2-11.64-5.4-15L62.61,58.19c-3.41-3.34-2.59-6.84,1.83-7.77l14-3c4.42-.93,9.4-5.4,11.08-9.94L95,22.59c1.68-4.53,4.88-4.68,7.12-.32Z"/><path class="cls-2" d="M80.6,106a3,3,0,0,1-1.9-.54c-1.28-.89-1.85-2.76-1.63-5.27L78.53,84c.43-4.82-2-11.41-5.31-14.69L62.16,58.44c-1.74-1.7-2.5-3.52-2.12-5.12s1.82-2.74,4.08-3.22l14-3c4.34-.92,9.22-5.29,10.86-9.74l5.53-14.94c.86-2.32,2.14-3.63,3.62-3.7h0c1.47-.05,2.9,1.13,4,3.35l7.37,14.34c2.2,4.27,7.59,8.17,12,8.68l14.27,1.65c2.3.26,3.89,1.26,4.46,2.82s.06,3.43-1.46,5.29l-9.64,11.78c-2.92,3.57-4.46,10.34-3.42,15.09l3.49,16c.54,2.47.2,4.38-.95,5.39s-2.94,1-5.05-.15l-13.17-6.89a15.4,15.4,0,0,0-14.15.65L83.7,104.88A6.17,6.17,0,0,1,80.6,106ZM98.16,19.44h0c-1.23.06-2.32,1.23-3.09,3.3L89.53,37.67c-1.72,4.64-6.79,9.19-11.3,10.14l-14,2.95c-2,.43-3.3,1.4-3.61,2.74S61,56.42,62.56,58L73.63,68.77c3.48,3.41,6,10.26,5.51,15.26l-1.45,16.28c-.2,2.23.27,3.87,1.33,4.62s2.61.52,4.35-.63L95.6,96.23c3.91-2.58,10.52-2.88,14.73-.68l13.17,6.89c1.88,1,3.45,1.07,4.41.23s1.22-2.51.74-4.72l-3.49-16c-1.08-4.94.52-12,3.56-15.69l9.63-11.78c1.36-1.66,1.84-3.29,1.36-4.59s-1.88-2.16-3.94-2.39l-14.26-1.65c-4.61-.53-10.23-4.59-12.51-9l-7.38-14.34C100.6,20.46,99.38,19.4,98.16,19.44Z"/><polygon class="cls-2" points="98.58 19.44 90.72 19.72 90.68 19.05 98.54 18.77 98.58 19.44"/><polygon class="cls-2" points="80.47 106.02 73.02 106.29 72.98 105.61 80.43 105.34 80.47 106.02"/><polygon class="cls-2" points="126.12 103.92 119.58 104.16 119.54 103.48 126.09 103.25 126.12 103.92"/></g></svg>