<svg xmlns="http://www.w3.org/2000/svg" viewBox="0 0 200 200"><defs><style>.cls-1{fill:#d1d1d1;}.cls-2{fill:#f4f4f4;}.cls-3{fill:#021d49;}.cls-4{fill:#febccb;}</style></defs><g id="Capa_2" data-name="Capa 2"><path class="cls-1" d="M45.33,39.22s-13.14-.9-15.48.48-4.69,2.62-4.16,7.11,8.67,71,8.67,71a23.29,23.29,0,0,0,6.2,10.23c4.8,4.51,20.4,20.88,24.83,25.48s16.69,18.61,20.86,20.31,13.5,1.74,13.5,1.74l1.54-12.94L51,112.61Z"/><path class="cls-2" d="M34.36,46.81c.28-2.53.57-6.75,5.91-7.31s30.93-5.06,38.24-7,12.66-4.22,16.59-3.94,7.31,2,12.38,2.81,47,9.28,51.46,9.57,5.9,6.51,6.18,11.55-5.34,65.21-6.75,68-10,10.79-12.14,12.9c-3.3,3.18-39.31,42.22-46.48,42.22-6,0-15.21-11.32-20.09-16.24-8.9-9-17.17-18.59-26.26-27.4-3.67-3.55-7.61-6.42-9.5-11.33-1.69-4.4-1.91-9.21-2.43-13.84-.67-6-1.39-12-2.1-18Q37.15,70,34.9,51.3Z"/></g><g id="Capa_3" data-name="Capa 3"><path class="cls-3" d="M34.81,46.81a9.88,9.88,0,0,1,1.31-4.68c1.14-1.64,3-2,4.85-2.26,2.82-.35,5.63-.83,8.44-1.3,7.85-1.3,15.7-2.71,23.5-4.35,3.74-.78,7.39-1.75,11-2.86,2.4-.73,4.8-1.52,7.26-2a15.75,15.75,0,0,1,6.9.13c3.55.82,7,1.9,10.59,2.56,2.22.41,4.43.84,6.64,1.27,13.13,2.54,26.23,5.26,39.42,7.47a36.71,36.71,0,0,1,5.13.78c4,1.26,4.66,7.57,4.78,11A101.06,101.06,0,0,1,164,63.42q-1.57,20.25-3.81,40.47c-.52,4.76-1,9.54-1.79,14.27a6.48,6.48,0,0,1-1.18,3.23,71.77,71.77,0,0,1-8.09,8.54c-7.42,7.18-14.39,14.79-21.68,22.09-5,5-10.1,10-15.43,14.7-2.17,1.91-4.38,3.79-6.72,5.5A16.85,16.85,0,0,1,100.6,175c-2.78.85-6-1.75-8-3.35A93.49,93.49,0,0,1,82.81,162c-3.73-4-7.61-7.89-11.36-11.89-4.37-4.68-8.71-9.39-13.19-14-2.15-2.19-4.33-4.35-6.58-6.42a37.6,37.6,0,0,1-5.52-5.83c-3.64-5.21-3.66-12-4.35-18.09C40.32,92.57,38.7,79.34,37.12,66.1L34.81,46.81c-.06-.57-1-.57-.9,0q2.46,20.49,4.89,41c.8,6.78,1.67,13.55,2.37,20.34.6,5.82,1,12,4.67,16.85a44.4,44.4,0,0,0,5.49,5.65c2.33,2.15,4.57,4.4,6.79,6.67,4.64,4.75,9.12,9.65,13.67,14.49,3.71,4,7.54,7.81,11.24,11.78A77.48,77.48,0,0,0,92.92,173c2,1.52,5,3.6,7.75,2.88a15.66,15.66,0,0,0,4.71-2.61,135,135,0,0,0,14.43-12.5c8.92-8.5,17.34-17.48,25.94-26.3,1.58-1.62,3.26-3.15,4.88-4.73,2.66-2.59,5.59-5.23,7.68-8.32a7.3,7.3,0,0,0,1-3.16c.34-2,.59-4.05.85-6.08,1.69-13.62,3-27.31,4.13-41,.46-5.29.92-10.58,1.2-15.88a28.26,28.26,0,0,0-.14-5.2c-.42-3.41-1.49-8.44-5.35-9.52-1.63-.45-3.5-.49-5.16-.77-2.88-.48-5.76-1-8.63-1.55-7.4-1.37-14.79-2.81-22.18-4.25-5.26-1-10.51-2.09-15.78-3-1.9-.34-3.77-.75-5.63-1.27a41,41,0,0,0-7.17-1.65,18.08,18.08,0,0,0-6.11.74c-2.76.7-5.47,1.61-8.2,2.41a217.14,217.14,0,0,1-22.46,4.79c-3.94.71-7.89,1.4-11.84,2-1.48.24-3,.47-4.46.68a24.12,24.12,0,0,0-4,.65c-3.37,1.12-4.15,4.23-4.5,7.39C33.85,47.39,34.75,47.38,34.81,46.81Z"/><path class="cls-3" d="M46.72,38.11c-3.71.48-7.52.58-11.25.78-1.9.11-4.09-.11-5.92.42a5.66,5.66,0,0,0-3.78,4.18,18.42,18.42,0,0,0-.47,2.77,23.21,23.21,0,0,0,.48,5l1.56,13.07q1.55,12.94,3.08,25.88.76,6.44,1.52,12.89c.46,4,.72,8,1.38,11.9a22,22,0,0,0,3.89,10c2,2.67,4.65,4.8,7.06,7.11,6,5.8,11.68,12,17.39,18.11,4.68,5,9.46,9.9,14.15,14.88,3.58,3.79,7.57,8.33,12.52,10.32a10.65,10.65,0,0,0,4.15.6h7.27a.45.45,0,0,0,0-.9c-2.87,0-5.75.07-8.61,0A10.4,10.4,0,0,1,85.69,173a46.54,46.54,0,0,1-6.51-5.64C75,163.13,71,158.74,66.85,154.44,61.34,148.66,56,142.74,50.42,137q-3.9-4-8-7.81c-2.45-2.26-4.88-4.62-6.33-7.67-1.73-3.66-2.14-7.84-2.54-11.81s-.88-8-1.35-11.93Q29.3,73.08,26.33,48.38a10.14,10.14,0,0,1,1-6.25C28.58,40,30.87,40,33.11,39.91c4.18-.16,8.36-.48,12.53-.81.36,0,.72,0,1.08-.09.57-.07.57-1,0-.9Z"/><polygon class="cls-4" points="80.98 79.61 64.18 96.41 98.81 123.16 174.38 42.92 155.88 24.4 98.81 98.81 80.98 79.61"/></g></svg>