<svg id="Capa_1" data-name="Capa 1" xmlns="http://www.w3.org/2000/svg" viewBox="0 0 200 200"><defs><style>.cls-1{fill:#f98aa7;}.cls-2{fill:#febccb;}.cls-3{fill:#021d49;}</style></defs><path class="cls-1" d="M55.59,47.85,39.45,64.4A40,40,0,0,0,32.19,87c0,13.18,8,30.77,34.59,51.4s38.79,26,38.79,26H126"/><path class="cls-2" d="M55.39,47.65l-9,9.26-5.52,5.66a18.89,18.89,0,0,0-1.88,2,39.16,39.16,0,0,0-6.87,18.77,38.06,38.06,0,0,0,2.67,17.71c6.7,17,21.56,29.7,35.72,40.48,7.15,5.45,14.45,10.72,22,15.58,3.66,2.35,7.38,4.64,11.26,6.63a9.39,9.39,0,0,0,1.65.82,13.4,13.4,0,0,0,3.23,0H126a.29.29,0,0,0,0-.57H106.21c-.72,0-.38.1-1-.21a93.63,93.63,0,0,1-8.24-4.61c-6.4-3.89-12.57-8.15-18.62-12.55-15.44-11.24-31.85-23.66-40.83-41a42.4,42.4,0,0,1-4.95-16.75,39,39,0,0,1,5.73-22.23c1.54-2.57,3.65-4.43,5.83-6.67l11-11.23.74-.76c.25-.26-.15-.66-.4-.4Z"/><path class="cls-2" d="M112.83,60.39s4-9.37,16.44-9.37,30.38,17.58,30.38,44.53S126,164.34,126,164.34,47.1,119.44,47.1,72.23C47.1,52.74,58.56,39,77.29,39S112.83,60.39,112.83,60.39Z"/><path class="cls-2" d="M113.08,60.53c1.71-4,5.76-6.94,9.72-8.24,6.34-2.08,12.48-.56,17.84,3.13,13.14,9.06,19.63,26.77,18.66,42.29-.43,6.88-2.61,13.61-5.2,20A155,155,0,0,1,143.76,138a239.65,239.65,0,0,1-17.39,25.49c-.13.17-.44.43-.51.64,0,0,.32.17.18-.06s-1.21-.71-1.57-.92c-2.66-1.59-5.28-3.25-7.88-4.94a278.35,278.35,0,0,1-27.48-20.36C78.52,128.86,68.48,119,60.48,107.57,53,96.92,47.1,84.44,47.39,71.16c.17-7.79,2.3-15.78,7.32-21.89a28,28,0,0,1,19.05-9.84c14.65-1.43,27.6,8.49,36.89,18.83.68.76,1.35,1.53,2,2.33.23.28.62-.12.4-.4A70,70,0,0,0,101.7,49C94.59,43.33,86,38.53,76.6,38.71c-8.69.16-17.07,3.61-22.56,10.5s-7.6,16.28-7.18,25.07c.77,16,9.87,30.46,19.93,42.34,10.51,12.43,23,23.13,36.11,32.75q7.3,5.37,15,10.29c2.51,1.62,5,3.31,7.67,4.73l.35.2a.29.29,0,0,0,.34-.05c3.79-4.71,7.29-9.68,10.67-14.69,6.81-10.12,13.12-20.73,17.75-32a70.27,70.27,0,0,0,4.91-17A51.31,51.31,0,0,0,158,80.5c-3.06-11.19-10.18-22.82-21-27.88a19.21,19.21,0,0,0-14.84-.68,17.38,17.38,0,0,0-9.17,7.66c-.11.21-.23.42-.32.64S112.93,60.86,113.08,60.53Z"/><path class="cls-3" d="M113.22,60.61a15.26,15.26,0,0,1,6-6.48,18.27,18.27,0,0,1,15.55-1.61c10.89,3.92,18.34,15.21,21.76,25.75A52,52,0,0,1,159,98.87a62.55,62.55,0,0,1-4.2,16.46C150.58,126.48,144.51,137,138,146.91q-3.78,5.75-7.85,11.3c-.89,1.22-1.8,2.42-2.71,3.62a12.26,12.26,0,0,0-1.51,1.95,1.57,1.57,0,0,1-.2.25l.55-.07c-6.22-3.54-12.19-7.56-18-11.67A232.46,232.46,0,0,1,73,122.45C62.19,111,52,97.46,48.6,81.82c-1.82-8.42-1.44-17.64,2.06-25.59a27.52,27.52,0,0,1,19-15.94,30.2,30.2,0,0,1,14-.06A41.36,41.36,0,0,1,96.5,46.12a72.18,72.18,0,0,1,15.28,13.7c.25.29.5.58.74.88.35.46,1-.18.63-.63A70,70,0,0,0,101.82,48.9C94.68,43.18,86,38.36,76.6,38.54c-8.73.16-17.16,3.63-22.68,10.55s-7.65,16.35-7.23,25.19c.77,16,9.89,30.54,20,42.46,10.52,12.44,23,23.14,36.14,32.77a223,223,0,0,0,22.63,15l.35.2a.45.45,0,0,0,.55-.07c3.79-4.72,7.31-9.7,10.69-14.72,6.83-10.13,13.13-20.76,17.77-32.08a70.82,70.82,0,0,0,4.92-17,51.77,51.77,0,0,0-1.6-20.38c-3.07-11.22-10.22-22.9-21.12-28a19.35,19.35,0,0,0-15-.7,17.47,17.47,0,0,0-9.26,7.74c-.12.21-.23.42-.33.64C112.22,60.69,113,61.14,113.22,60.61Z"/><path class="cls-3" d="M55.27,47.53l-9,9.26-5.53,5.66a19.31,19.31,0,0,0-1.9,2,39.43,39.43,0,0,0-6.9,18.86,38.12,38.12,0,0,0,2.68,17.76c6.72,17.06,21.6,29.77,35.79,40.58,7.15,5.44,14.45,10.71,22,15.57,3.67,2.36,7.39,4.65,11.26,6.64a10.19,10.19,0,0,0,1.66.81,12.2,12.2,0,0,0,3.31.07H126a.45.45,0,0,0,0-.9H106.21c-.26,0-.85-.08-.44.05a4.9,4.9,0,0,1-.52-.24c-2.83-1.36-5.55-3-8.24-4.6-6.39-3.89-12.56-8.15-18.62-12.56C63,135.32,46.59,122.92,37.62,105.6A42.11,42.11,0,0,1,32.7,88.94a38.78,38.78,0,0,1,5.7-22.15,22.55,22.55,0,0,1,1.28-2,2.14,2.14,0,0,1,.38-.42c1.4-1.39,2.77-2.84,4.15-4.26L55.16,48.93l.75-.76c.4-.41-.24-1.05-.64-.64Z"/></svg>