<?xml version="1.0" encoding="utf-8"?>
<!-- Generator: Adobe Illustrator 25.2.1, SVG Export Plug-In . SVG Version: 6.00 Build 0)  -->
<svg version="1.1" id="Capa_1" xmlns="http://www.w3.org/2000/svg" xmlns:xlink="http://www.w3.org/1999/xlink" x="0px" y="0px"
	 viewBox="0 0 200 200" style="enable-background:new 0 0 200 200;" xml:space="preserve">
<style type="text/css">
	.st0{fill:#B7B7B7;}
	.st1{fill:#E0E0E0;}
	.st2{fill:#FEBCCB;}
	.st3{fill:#021D49;}
</style>
<g>
	<ellipse transform="matrix(0.6356 -0.772 0.772 0.6356 -85.2446 85.8441)" class="st0" cx="48.3" cy="133.2" rx="13.4" ry="18"/>
</g>
<g>
	<ellipse transform="matrix(0.6356 -0.772 0.772 0.6356 -90.6668 159.2815)" class="st0" cx="123.4" cy="175.7" rx="13.4" ry="18"/>
</g>
<path class="st1" d="M35.7,39.4L78.5,13l74.6,43.6v17.8l30.6,15.7c0,0,11.5,23.5,12.2,32.7c0.7,9.2,0,34.8,0,34.8l-42.8,24.7
	L35.7,115.3V39.4z"/>
<g>
	<path class="st0" d="M174.7,169.9c0,0,1.1,5.2,9,5.2s7-14.4,7-14.4"/>
</g>
<polygon class="st0" points="35.7,39.4 78.5,13 153.1,56.6 109.5,82.9 "/>
<polygon class="st0" points="110.1,99.6 152.9,73 183.7,90.1 140,115.3 "/>
<path class="st2" d="M140,115.3l43.7-25.2c0,0,11.5,26.2,12.2,32.7c0.6,6.4,0,34.8,0,34.8l-42.8,24.7c0,0,1.9-29,0-35.2
	C151.2,140.8,140,115.3,140,115.3z"/>
<g>
	<g>
		<g>
			<path class="st3" d="M35.9,39.8c7.6-4.7,15.2-9.4,22.9-14.1c4.4-2.7,8.9-5.5,13.3-8.2c1-0.6,1.9-1.2,2.9-1.8
				c2.2-1.4,4.8-1.3,7.1,0c6.3,3.6,12.6,7.3,18.9,11c10.7,6.3,21.4,12.5,32.1,18.8c4.3,2.5,8.6,5,12.9,7.5c1.4,0.8,2.9,1.7,4.3,2.5
				c0.7,0.4,1.5,1.1,2.3,1.3c0.1,0,0.2,0.1,0.3,0.2c0-0.3,0-0.5,0-0.8c-7.6,4.5-15.1,9-22.7,13.5c-4.5,2.7-9.1,5.4-13.6,8.1
				c-1,0.6-2.1,1.2-3.1,1.8c-2.6,1.5-5.5,1.5-8.1,0.1c-6-3.4-11.9-7-17.9-10.5c-10.5-6.2-21.1-12.4-31.6-18.6
				c-6.5-3.8-12.9-7.9-19.6-11.5c-0.1-0.1-0.2-0.1-0.3-0.2c-0.5-0.3-1,0.5-0.5,0.8c5.5,3.3,11.1,6.5,16.6,9.8
				C62.7,55.8,73.4,62,84,68.3c6.8,4,13.7,8,20.5,12c1.7,1,3.6,1.6,5.6,1.4c1.8-0.2,3.2-1,4.7-1.8c3.8-2.3,7.7-4.6,11.5-6.9
				c8.8-5.2,17.6-10.5,26.4-15.7c0.2-0.1,0.4-0.2,0.5-0.3c0.3-0.2,0.3-0.6,0-0.8c-5.5-3.2-11.1-6.5-16.6-9.7
				C126,40.3,115.3,34,104.5,27.7c-7.2-4.2-14.3-8.4-21.5-12.6c-1.2-0.7-2.5-1.3-4-1.4c-2-0.1-3.7,0.6-5.4,1.7
				c-3.8,2.3-7.5,4.6-11.3,7C53.6,27.8,44.8,33.3,36,38.7c-0.2,0.1-0.4,0.2-0.5,0.3C35,39.3,35.4,40.1,35.9,39.8z"/>
		</g>
	</g>
	<g>
		<g>
			<path class="st3" d="M108.9,82.6c0,6.4,0,12.9,0,19.3c0,10.2,0,20.4,0,30.6c0,2.4,0,4.7,0,7.1c0,0.6,0.9,0.6,0.9,0
				c0-6.4,0-12.9,0-19.3c0-10.2,0-20.4,0-30.6c0-2.4,0-4.7,0-7.1C109.8,82,108.9,82,108.9,82.6L108.9,82.6z"/>
		</g>
	</g>
	<g>
		<g>
			<path class="st3" d="M35.2,40.3c0,7.8,0,15.6,0,23.4c0,9,0,18,0,27c0,1.7,0,3.4,0,5.2c0,0.5-0.2,1.4,0.2,1.9
				c0.4,0.4,1.1,0.6,1.5,0.9c3.4,2,6.8,4,10.2,5.9c5.8,3.4,11.5,6.7,17.3,10.1c7.2,4.2,14.3,8.3,21.5,12.5c7.5,4.4,15,8.7,22.5,13.1
				c6.9,4,13.7,8,20.6,12c5.2,3,10.4,6.1,15.7,9.1c2.6,1.5,5.2,3.1,7.8,4.5c0.1,0.1,0.2,0.1,0.3,0.2c0.5,0.3,1-0.5,0.5-0.8
				c-1.8-1-3.5-2.1-5.3-3.1c-4.7-2.7-9.3-5.4-14-8.1c-6.5-3.8-13-7.6-19.5-11.4c-7.4-4.3-14.8-8.6-22.2-12.9
				c-7.3-4.2-14.6-8.5-21.9-12.7c-6.2-3.6-12.5-7.3-18.7-10.9c-4.1-2.4-8.3-4.8-12.4-7.2c-1-0.6-2-1.1-2.9-1.7
				c-0.1,0-0.4-0.3-0.5-0.3c0.3-0.1,0.1,0.7,0.2,0.1c0.1-0.4,0-0.9,0-1.4c0-8.9,0-17.8,0-26.8c0-8.8,0-17.5,0-26.3
				c0-0.8,0-1.5,0-2.3C36.1,39.7,35.2,39.7,35.2,40.3L35.2,40.3z"/>
		</g>
	</g>
	<g>
		<g>
			<path class="st3" d="M109.6,99.8c7.8-4.7,15.5-9.4,23.3-14c5-3,10.1-6.1,15.1-9.1c1.5-0.9,2.9-1.8,4.4-2.6
				c0.7-0.4,1.2-0.5,1.2-1.3c0.1-5.3,0-10.6,0-16c0-0.6-0.9-0.6-0.9,0c0,4.9,0,9.7,0,14.6c0,0.4,0,0.9,0,1.3c0.1,0.8-0.1,0,0.2,0.1
				c-0.1,0-0.5,0.3-0.6,0.4c-1.3,0.8-2.5,1.5-3.8,2.3c-10.2,6.1-20.3,12.3-30.5,18.4c-3,1.8-5.9,3.6-8.9,5.4
				C108.6,99.3,109.1,100.1,109.6,99.8L109.6,99.8z"/>
		</g>
	</g>
	<g>
		<g>
			<path class="st3" d="M152.9,73.3c8.9,5,17.9,10,26.8,15.1c1.3,0.7,2.5,1.4,3.8,2.1c0-0.3,0-0.5,0-0.8
				c-9.8,5.6-19.6,11.2-29.4,16.8c-3.5,2-7,4.2-10.6,6c-2.6,1.3-5.6,1.2-8.1-0.1c-0.5-0.3-1.1-0.6-1.6-0.8c-2.7-1.4-5.3-2.8-8-4.2
				c-5.4-2.8-10.8-5.7-16.2-8.5c-0.5-0.3-1,0.5-0.5,0.8c4.7,2.5,9.4,4.9,14,7.4c3,1.6,6,3.2,9,4.7c1.9,1,3.9,2.2,6.1,2.5
				c2.8,0.4,5.1-0.6,7.4-2c2-1.2,4.1-2.3,6.1-3.5c6.4-3.7,12.8-7.3,19.2-11c4.3-2.5,8.7-5,13-7.4c0.3-0.2,0.3-0.6,0-0.8
				c-8.9-5-17.9-10-26.8-15.1c-1.3-0.7-2.5-1.4-3.8-2.1C152.8,72.3,152.4,73.1,152.9,73.3L152.9,73.3z"/>
		</g>
	</g>
	<g>
		<g>
			<path class="st3" d="M139.3,115.5c4,8.1,8,16.3,11.2,24.8c0.8,2.1,1.6,4.3,2.1,6.5c0.5,2.2,0.6,4.4,0.7,6.6
				c0.3,5.9,0.1,11.8-0.1,17.6c-0.1,3.8-0.3,7.5-0.6,11.3c0,0.3,0.4,0.6,0.7,0.4c5.2-3,10.3-6,15.5-9c7.8-4.5,15.6-9,23.4-13.5
				c1-0.6,2-1.2,3-1.7c0.4-0.2,0.9-0.4,1.1-0.9c0.3-0.8,0.1-2,0.2-2.8c0.1-2.2,0.2-4.4,0.3-6.5c0.2-5.8,0.4-11.6,0.2-17.4
				c-0.1-4.4-0.5-8.7-1.8-12.9c-2.9-9.4-6.8-18.5-10.8-27.4c-0.1-0.2-0.2-0.4-0.3-0.6c-0.2-0.5-1-0.1-0.8,0.5c3.5,8,6.9,16,9.8,24.3
				c1.5,4.2,2.5,8.3,2.8,12.7c0.3,5.6,0.2,11.3,0.1,16.9c-0.1,4.2-0.3,8.3-0.5,12.5c0,0.1-0.1,0.8,0,0.8c-0.4-0.3,0.6-0.5-0.1-0.2
				c-0.8,0.3-1.5,0.9-2.3,1.3c-7.3,4.2-14.6,8.5-22,12.7c-3.8,2.2-7.7,4.4-11.5,6.7c-1.4,0.8-2.8,1.6-4.1,2.4
				c-0.7,0.4-1.7,0.8-2.3,1.3c-0.1,0.1-0.2,0.1-0.3,0.2c0.2,0.1,0.5,0.3,0.7,0.4c0.6-9.1,1-18.2,0.7-27.3c-0.1-2.4-0.2-4.7-0.6-7.1
				c-0.3-2.1-1-4.1-1.7-6.1c-2-5.5-4.4-10.9-6.9-16.3c-1.6-3.5-3.3-7.1-5.1-10.6C139.8,114.6,139,115,139.3,115.5L139.3,115.5z"/>
		</g>
	</g>
	<g>
		<g>
			<path class="st3" d="M153.3,182c-4.9-2.8-9.8-5.6-14.7-8.4c-11.3-6.4-22.5-12.9-33.8-19.3c-12.7-7.2-25.3-14.5-38-21.7
				c-8.8-5.1-17.7-10.1-26.5-15.2c-1-0.6-2.1-1.2-3.1-1.8c-0.1-0.1-1.1-0.8-1.2-0.7c0.5-0.2,0.1,0.7,0.2,0.1c0.1-0.4,0-0.9,0-1.3
				c0-1.5,0-2.9,0-4.4c0-3.4,0-6.8,0-10.2c0-0.6,0-1.3,0-1.9c0-0.6-0.9-0.6-0.9,0c0,6,0,12,0,18c0,0.2,0.1,0.3,0.2,0.4
				c3.9,2.2,7.8,4.5,11.7,6.7c9.3,5.3,18.6,10.7,28,16c11.3,6.5,22.7,13,34,19.4c9.7,5.6,19.5,11.1,29.2,16.7
				c3.2,1.8,6.4,3.7,9.6,5.5c1.5,0.9,3,1.9,4.6,2.6c0.1,0,0.1,0.1,0.2,0.1C153.4,183.1,153.8,182.3,153.3,182L153.3,182z"/>
		</g>
	</g>
	<g>
		<g>
			<path class="st3" d="M62.9,131.2c1.8,4.6,1.8,10.3-2.3,13.8c-3.1,2.7-7.5,3.1-11.4,2.3c-8.4-1.8-16.6-9.6-16.8-18.6
				c-0.1-5,2.9-9.1,7.7-10.5c0.6-0.2,0.3-1-0.2-0.9c-4.4,1.2-7.6,4.7-8.2,9.2c-0.6,4.5,1.1,9.1,3.7,12.6c5.2,7,16.8,13,25,7.2
				c5-3.5,5.5-10.1,3.4-15.4C63.6,130.5,62.7,130.7,62.9,131.2L62.9,131.2z"/>
		</g>
	</g>
	<g>
		<g>
			<path class="st3" d="M138.2,174.3c1.6,4.6,1.4,10.1-2.7,13.5c-3.2,2.6-7.8,2.9-11.7,2c-8.3-2-16.5-10.1-16.3-19.1
				c0.1-2.1,0.6-4.1,1.8-5.9c1.4-2.1,3.3-3.1,5.8-3.6c0.6-0.1,0.3-1-0.2-0.9c-2.3,0.5-4.1,1.3-5.6,3.1c-1.3,1.5-2.1,3.4-2.5,5.3
				c-0.7,4.3,0.8,8.8,3.3,12.4c3,4.3,7.4,7.7,12.5,9.2c4.1,1.3,9,1.3,12.7-1.2c5-3.3,5.7-9.7,3.9-15
				C138.9,173.5,138,173.7,138.2,174.3L138.2,174.3z"/>
		</g>
	</g>
	<g>
		<g>
			<path class="st3" d="M174.2,170c0.2,1.2,1,2.4,1.8,3.3c2,2.1,4.9,2.6,7.7,2.2c2.6-0.4,4.9-1.8,6.2-4.2c1.1-2,1.5-4.3,1.5-6.6
				c0-1.4-0.1-2.8-0.3-4.2c-0.1-0.6-1-0.3-0.9,0.2c0.6,2.8,0.5,6.1-0.5,8.8c-0.8,2.2-2.4,4-4.7,4.7c-2.6,0.8-5.8,0.7-7.9-1.2
				c-1-0.9-1.8-2.1-2-3.4C175,169.2,174.1,169.4,174.2,170L174.2,170z"/>
		</g>
	</g>
	<g>
		<g>
			<path class="st3" d="M1.9,48.3c7.9,4.6,15.7,9.1,23.6,13.7c1.1,0.6,2.2,1.3,3.3,1.9c0.5,0.3,1-0.5,0.5-0.8
				c-7.9-4.6-15.7-9.1-23.6-13.7c-1.1-0.6-2.2-1.3-3.3-1.9C1.8,47.3,1.4,48.1,1.9,48.3L1.9,48.3z"/>
		</g>
	</g>
	<g>
		<g>
			<path class="st3" d="M1.9,84.1c7.9,4.6,15.7,9.1,23.6,13.7c1.1,0.6,2.2,1.3,3.3,1.9c0.5,0.3,1-0.5,0.5-0.8
				c-7.9-4.6-15.7-9.1-23.6-13.7c-1.1-0.6-2.2-1.3-3.3-1.9C1.8,83,1.4,83.8,1.9,84.1L1.9,84.1z"/>
		</g>
	</g>
	<g>
		<g>
			<path class="st3" d="M16.6,44.8c3.5,2.1,7.1,4.1,10.6,6.2c0.5,0.3,1,0.6,1.5,0.9c0.5,0.3,1-0.5,0.5-0.8
				c-3.5-2.1-7.1-4.1-10.6-6.2c-0.5-0.3-1-0.6-1.5-0.9C16.6,43.8,16.1,44.5,16.6,44.8L16.6,44.8z"/>
		</g>
	</g>
	<g>
		<g>
			<path class="st3" d="M16.6,80.8c3.5,2.1,7.1,4.1,10.6,6.2c0.5,0.3,1,0.6,1.5,0.9c0.5,0.3,1-0.5,0.5-0.8
				c-3.5-2.1-7.1-4.1-10.6-6.2c-0.5-0.3-1-0.6-1.5-0.9C16.6,79.8,16.1,80.5,16.6,80.8L16.6,80.8z"/>
		</g>
	</g>
</g>
</svg>
