<svg xmlns="http://www.w3.org/2000/svg" viewBox="0 0 200 200"><defs><style>.cls-1{fill:#f4f4f4;}.cls-2{fill:#d1d1d1;}.cls-3{fill:#021d49;}.cls-4{fill:#febccb;}</style></defs><g id="Capa_2" data-name="Capa 2"><path class="cls-1" d="M161.23,80.91c-.58-3.61.8-7.63-.09-11.17s1-4.32-2.41-5c-14.74-2.86-32.25-6.9-46.25-12.33-7.38-2.87-18-8.51-26.14-6.81C78,47.36,65.86,52,57.65,54.14c-17.44,4.58-26.81,9-44.24,13.62a1.59,1.59,0,0,0-1.25,1.62,2.06,2.06,0,0,0-.47,1.3c-1.81,11.12-2.64,48.7-2.83,56.1C8.73,131.83,8,148,8.48,153.62c.19,2.32.93,3.24,3,3.93,12.68,4.25,27.77,5.57,40.91,8.09,10.87,2.08,27.69,9,38.25,3.91a189,189,0,0,1,41-14.59c10.06-2.24,27.59-4.49,30.58-17.33.76-3.23.44-6.51.15-9.77-.37-4.24-1.33-7.27-.6-11.46C163.05,109.21,162.4,88.15,161.23,80.91Z"/><path class="cls-2" d="M11.27,68.58,87.74,45.41l5.4.21,65.59,19.14A241.61,241.61,0,0,0,123.64,74C106,80.24,89.73,85.47,85.84,85.47S56.09,77.7,46.5,76.07,11.27,68.58,11.27,68.58Z"/><path class="cls-3" d="M10,68.87c20.3-6.34,40.75-12.2,61.15-18.23,5-1.47,10-3.29,15.11-4.18,4.83-.85,9.57,0,14.27,1.21,9.58,2.38,19,5.44,28.46,8.24,10.87,3.22,21.74,6.4,32.68,9.33a.45.45,0,0,0,.24-.87c-19.62-5.26-38.95-11.56-58.55-16.9-4.21-1.14-8.64-2.31-13-2.3-5.11,0-10.07,1.83-14.92,3.27-10.31,3.07-20.64,6.07-31,9.11C32.86,61,21.29,64.4,9.76,68c-.55.17-.31,1,.24.87Z"/><path class="cls-3" d="M160.44,66c.34,19.38,1,38.76,1.72,58.13q.33,9.11.66,18.21l.33-.43q-32,12.07-64.42,23-9.09,3.06-18.22,6c-.55.18-.32,1,.24.87q32.52-10.55,64.65-22.29,9-3.3,18-6.68a.47.47,0,0,0,.33-.44c-.68-19.37-1.5-38.74-2-58.12q-.24-9.12-.39-18.22a.45.45,0,0,0-.9,0Z"/><path class="cls-3" d="M80.75,170.83c-21.31-4.38-42.7-8.29-64-12.65l-3.58-.73c-1.13-.24-2.72-.33-3.61-1.12-1-.91-.62-3.17-.62-4.44,0-1.51,0-3,0-4.53q0-8.1.2-16.21c.17-9.15.45-18.31.69-27.46.31-11.75.5-23.5.5-35.26a.45.45,0,0,0-.9,0c0,20.27-.75,40.51-1.16,60.77-.1,5.29-.18,10.58-.21,15.87,0,3,0,6.09,0,9.13a3.45,3.45,0,0,0,.68,2.59,4.82,4.82,0,0,0,2.66,1.2c10.75,2.34,21.58,4.35,32.38,6.45,12.26,2.39,24.53,4.74,36.77,7.26.56.12.8-.75.24-.87Z"/><path class="cls-3" d="M11.15,69c19.43,4.75,39.1,8.43,58.48,13.34,2.39.6,4.77,1.23,7.14,1.87a45.93,45.93,0,0,0,7.11,1.6,17.74,17.74,0,0,0,7-.81c2.35-.68,4.72-1.33,7.09-2,9.92-2.72,19.73-5.83,29.57-8.85,10.69-3.29,21.42-6.49,32.35-8.89.57-.12.33-1-.24-.87-19.49,4.29-38.32,11-57.48,16.5q-3.62,1-7.25,2c-2.31.62-4.61,1.48-7,1.89-5,.88-10.27-1.3-15.08-2.56-9.66-2.51-19.39-4.69-29.13-6.82C33,73.06,22.13,70.77,11.39,68.14c-.56-.13-.8.73-.24.87Z"/><path class="cls-3" d="M84.9,87.12c0,10.7-.16,21.39-.3,32.08q-.25,18.51-.5,37c0,4.61-.11,9.22-.11,13.83a.45.45,0,0,0,.9,0c0-9.65.18-19.3.31-28.94q.26-18.94.49-37.87c.06-5.37.11-10.73.11-16.1a.45.45,0,0,0-.9,0Z"/><path class="cls-4" d="M143.21,169.51l-19.5-15.28a24.79,24.79,0,0,1-9.49-19.51V99.39c20.63,0,36.53-14.35,36.53-14.35s15.91,14.35,36.54,14.35v35.33a24.77,24.77,0,0,1-9.5,19.51L158.3,169.51A12.24,12.24,0,0,1,143.21,169.51Z"/><path class="cls-3" d="M135.29,131.08a50.43,50.43,0,0,1,11.41,6.63.44.44,0,0,0,.63,0,95.76,95.76,0,0,1,21.34-20.18c.48-.33,0-1.11-.45-.78a96.17,96.17,0,0,0-21.52,20.33h.63a52,52,0,0,0-11.8-6.87c-.54-.22-.77.65-.24.87Z"/><polygon class="cls-3" points="76.15 128.57 48.7 121.16 48.7 87.27 76.15 94.69 76.15 128.57"/></g></svg>