<svg xmlns="http://www.w3.org/2000/svg" viewBox="0 0 200 200"><defs><style>.cls-1{fill:#021d49;}.cls-2{fill:#f4f4f4;}.cls-3{fill:#d1d1d1;}</style></defs><g id="Capa_2" data-name="Capa 2"><polygon class="cls-1" points="47.71 86.71 24.53 46.12 5.73 46.12 5.73 126.75 23.86 126.75 23.86 80.6 40.47 109.88 54.96 109.88 71.57 80.6 71.57 126.75 89.7 126.75 89.7 46.12 70.89 46.12 47.71 86.71"/><polygon class="cls-1" points="179.56 46.12 156.91 46.12 138.52 71.52 120.13 46.12 97.35 46.12 126.9 85.96 96.77 126.75 119.65 126.75 138.16 101.23 156.55 126.75 179.56 126.75 149.78 86.44 179.56 46.12"/><path class="cls-2" d="M139.78,110.24,190.1,67.35l6.83,2.12-4.51,67.31L178.61,131s-12.43,25.84-21.11,31.78S134,176.12,121.31,173.26s-30-7.41-43.09-17.37-10.25-13-10.25-13l7.11-6.43,25.7,5.12a16.4,16.4,0,0,0,3.19,8.85,43.59,43.59,0,0,0,6.86,6.83s10.73-3.66,15.78-7.1,15.45-9.82,19.23-22.91l4.45-8.94-6-2.52Z"/><path class="cls-3" d="M150.56,119.13l6.06,1.14s-3.7,22.23-12.33,30-15.8,15.52-32,17.14S81.2,164.67,68,142.85h0l7.11-6.43s2.74,8.6,7.54,13.18,18.63,16.3,38.86,4.11S147.13,129,150.56,119.13Z"/><path class="cls-3" d="M139.78,110.24l4.51,5.51s23.14-16,32.51-25.82,20.13-20.46,20.13-20.46-2.2-3.69-3.75-3-30.31,24.6-30.31,24.6Z"/></g><g id="Capa_3" data-name="Capa 3"><path class="cls-1" d="M75,136.85,100.67,142l.11-.88c-1.66,0,0,4.66.29,5.41,1.67,4.24,5.21,7.92,8.42,11,.42.4,1.05-.24.64-.64a40.55,40.55,0,0,1-7.44-9.18,13.07,13.07,0,0,1-1.22-3c-.15-.56-.29-1.13-.39-1.7,0-.24,0-.5-.1-.73-.09-.49.18-.32-.2-.32.5,0,.63-.79.12-.89L75.2,136c-.56-.12-.81.75-.24.86Z"/><path class="cls-1" d="M75.59,137A27.84,27.84,0,0,0,85.7,153a28.33,28.33,0,0,0,18.47,5.87c14.78-.41,27.65-9.85,36.32-21.26,4.25-5.6,7.24-12,10.46-18.2.27-.51-.51-1-.78-.45-2.7,5.2-5.21,10.53-8.48,15.42a65.27,65.27,0,0,1-13.5,14.41c-10.74,8.58-27.08,12.89-39.46,5.24a27.18,27.18,0,0,1-12.28-17.22c-.12-.56-1-.32-.86.24Z"/><path class="cls-1" d="M156.44,119.83c-3.88-1.21-7.72-2.55-11.52-4-.55-.21-.78.66-.24.87,3.8,1.44,7.64,2.78,11.53,4,.55.18.79-.69.23-.87Z"/><path class="cls-1" d="M145.42,115.13a357.74,357.74,0,0,0,41-34.57c3.79-3.69,7.53-7.44,11.25-11.2L196.9,69c-.9,17.65-1.71,35.3-3.34,52.9-.46,5-1,9.9-1.59,14.84l.57-.43a57.61,57.61,0,0,1-13.71-5.71.45.45,0,0,0-.45.78,58.38,58.38,0,0,0,13.92,5.8.46.46,0,0,0,.57-.44C195,119.45,196.09,102,197,84.58q.42-7.77.8-15.54a.46.46,0,0,0-.77-.32C184.58,81.31,171.86,93.61,158,104.6c-4.25,3.36-8.59,6.6-13,9.76-.46.33,0,1.11.46.77Z"/><path class="cls-1" d="M73.44,137l-5.79,6.59a.48.48,0,0,0-.07.55c3.44,7.14,10,12.25,16.4,16.69a39.65,39.65,0,0,0,11.21,5.69,42.2,42.2,0,0,0,11.65,1.7c15.54.09,31.65-7.94,40.31-21,5.2-7.83,8.37-17.33,9.91-26.53.09-.57-.77-.82-.87-.24a75,75,0,0,1-7.91,23.08A44,44,0,0,1,132,160.17c-13.33,8.06-31.12,10.08-44.77,1.66a80,80,0,0,1-10.8-8.06,32.84,32.84,0,0,1-8-10.14l-.07.55,5.78-6.59c.38-.43-.25-1.07-.63-.64Z"/><path class="cls-1" d="M144.51,115.36c-1.92-1.48-3.46-3.4-5.39-4.88a.45.45,0,0,0-.61.16.46.46,0,0,0,.16.62c1.93,1.48,3.46,3.4,5.39,4.88a.45.45,0,0,0,.45-.78Z"/><path class="cls-1" d="M139.22,111.19c15-12.1,29.32-25,44.28-37.11,2.1-1.7,4.22-3.4,6.35-5.08,1.13-.89,2.49-2.2,4.05-2.17,1.15,0,1.92,1.14,2.71,1.85.43.38,1.07-.25.64-.64-1.16-1.05-2.09-2.29-3.81-2.07-2.14.27-3.94,2.17-5.55,3.45q-6.18,4.89-12.21,10c-7.74,6.45-15.34,13-23,19.54q-7,5.9-14.07,11.64c-.45.37.19,1,.64.64Z"/><path class="cls-1" d="M97,167.21a117.36,117.36,0,0,0,20.47,5.72,53.58,53.58,0,0,0,12.9.53c3.54-.27,7.19-.12,10.67-1a36.63,36.63,0,0,0,7.81-3.22,43.59,43.59,0,0,0,6.6-4.16,52.47,52.47,0,0,0,10.82-11.73c4.88-7,8.82-14.59,12.74-22.13.27-.51-.51-1-.77-.45-3.45,6.62-6.93,13.26-11,19.52A58.13,58.13,0,0,1,156.67,163a46.28,46.28,0,0,1-13.72,8c-3.32,1.28-6.83,1.37-10.35,1.53a72.88,72.88,0,0,1-12.36,0c-7.83-1-15.62-3.4-23-6.08-.54-.2-.78.67-.24.86Z"/></g></svg>