<svg xmlns="http://www.w3.org/2000/svg" viewBox="0 0 200 200"><defs><style>.cls-1{fill:#ddd4d3;}.cls-2,.cls-6{fill:#febccb;}.cls-3{fill:#fcc4c0;}.cls-4{fill:none;stroke-width:0.84px;}.cls-4,.cls-6{stroke:#021d49;stroke-miterlimit:10;}.cls-5{fill:#021d49;}</style></defs><g id="Capa_4" data-name="Capa 4"><path class="cls-1" d="M106.65,89.77,129.81,76s16.85-2.44,29.67,12.8,13.78,28.5,9.25,40.06l-28.38,18.4s-17.45,11.05-36.84-19.62a35.12,35.12,0,0,1-5.84-21.52C98.15,94.2,106.65,89.77,106.65,89.77Z"/><path class="cls-2" d="M104.28,91.5s15.93-8.58,32.31,14.75,8.48,39.84-.67,42.92-24.71-8.77-32.41-21.56S95.93,95.19,104.28,91.5Z"/><path class="cls-3" d="M159.62,170.85s-16.21,5-16.21,14.65,12.16,7.8,16.21,5.3,11.13-4.67,11.13-14.34C170.75,168,159.62,170.85,159.62,170.85Z"/><path class="cls-1" d="M28.63,134.38l23.16-13.8s16.85-2.44,29.67,12.8,13.78,28.49,9.25,40.06L62.34,191.83s-17.45,11.06-36.85-19.61a35.19,35.19,0,0,1-5.83-21.52C20.14,138.8,28.63,134.38,28.63,134.38Z"/><path class="cls-2" d="M26.27,136.1s15.92-8.58,32.3,14.75,8.48,39.85-.66,42.92S33.2,185,25.49,172.22,17.91,139.8,26.27,136.1Z"/></g><g id="Capa_2" data-name="Capa 2"><path class="cls-4" d="M35.52,134.68c10,0,32.74,20.89,32.74,40.22,0,16.53-6.86,19.64-15,19.64-10.82,0-33.67-19-33.67-43.65C19.62,135.92,27.41,134.68,35.52,134.68Z"/><path class="cls-4" d="M24.5,137.19l27.38-16.32a17.88,17.88,0,0,1,8,0c9.74,2.18,30.56,13.81,32.74,35.48.64,6.35.09,16.53-2.74,18.48-3.87,2.66-27.65,17.44-27.65,17.44"/><path class="cls-4" d="M113.45,89.77c10,0,32.74,20.9,32.74,40.23,0,16.52-6.86,19.64-15,19.64-10.82,0-33.68-19-33.68-43.65C97.54,91,105.34,89.77,113.45,89.77Z"/><path class="cls-4" d="M102.43,92.29,129.81,76a17.86,17.86,0,0,1,8,0c9.74,2.18,30.56,13.8,32.74,35.48.64,6.35.09,16.53-2.74,18.48-3.87,2.66-27.65,17.44-27.65,17.44"/><path class="cls-1" d="M63.63,127.69l-13.3,7v-71a58.05,58.05,0,0,1,19.8-38.77C89.27,8.23,112,4.33,126.77,15.2,140.5,25.31,141.56,35,141.63,36.81V80.92l-13.31,7V37.5c-.18-.87-1.54-5.77-9.45-11.59-9.46-7-25.91-3.26-40,9A44.62,44.62,0,0,0,63.63,64.06Z"/><path class="cls-5" d="M63.41,127.3l-13.31,7,.68.39V68.9a55.53,55.53,0,0,1,.63-10.31A58.52,58.52,0,0,1,69.64,25.92C80.8,15.84,96.21,8,111.65,9.8c7.31.87,13.51,4.2,18.94,9.07,4.39,3.95,8.37,8.88,10,14.65a17.13,17.13,0,0,1,.6,4.93v41.1a6.25,6.25,0,0,0,0,1.06c.11.65-.2-.19.19-.06-.19-.07-1.09.57-1.26.66l-2.59,1.36-6.23,3.27-3.19,1.67.67.39V42.18c0-1.51.13-3.08,0-4.58-.19-2.27-2-4.61-3.39-6.28-3.38-4.12-7.89-7.7-13.18-8.84-11.53-2.49-23.66,3.86-32.3,11A46.31,46.31,0,0,0,63.73,60.12a43.68,43.68,0,0,0-.55,8.7v58.87a.45.45,0,0,0,.9,0v-54c0-3.22-.13-6.48,0-9.7a31.63,31.63,0,0,1,1.38-7.28A45.07,45.07,0,0,1,72.12,43,51.63,51.63,0,0,1,87.47,29.16,41.29,41.29,0,0,1,104.64,23c4.91-.47,10,.35,14,3.29,3.62,2.63,7.62,6.26,9.06,10.66a10.29,10.29,0,0,1,.17,2.95v48a.45.45,0,0,0,.68.39l13.3-7a.45.45,0,0,0,.23-.39V39.73a28.74,28.74,0,0,0-.13-4.15,25.15,25.15,0,0,0-4.93-11,41,41,0,0,0-15.55-13,35.69,35.69,0,0,0-17.56-2.8C89.47,10,75.54,18.12,65.7,28.51A59.17,59.17,0,0,0,50.53,58.44a51.13,51.13,0,0,0-.65,9.4v66.84a.45.45,0,0,0,.68.38l13.3-7C64.37,127.81,63.92,127,63.41,127.3Z"/><path class="cls-4" d="M170.75,116.9s15.06,12.92,15.06,30.47-16.08,25.33-16.08,25.33"/><path class="cls-6" d="M159.62,170.85s-16.21,5-16.21,14.65,12.16,7.8,16.21,5.3,11.13-4.67,11.13-14.34C170.75,168,159.62,170.85,159.62,170.85Z"/></g></svg>