<svg id="Capa_1" data-name="Capa 1" xmlns="http://www.w3.org/2000/svg" xmlns:xlink="http://www.w3.org/1999/xlink" viewBox="0 0 200 200"><defs><style>.cls-1{fill:none;}.cls-2{isolation:isolate;}.cls-3{clip-path:url(#clip-path);}.cls-4{fill:#b7b7b7;}.cls-5{fill:#f4f4f4;}.cls-6{fill:#021d49;}.cls-7{clip-path:url(#clip-path-2);}</style><clipPath id="clip-path"><path class="cls-1" d="M109.54,177.28l-13.1-3.55a47.27,47.27,0,0,1-12.37-5.27,38.42,38.42,0,0,1-16.65-21A51,51,0,0,1,65,131.39c0-10.59,2.83-21.55,7.12-32.07a174.19,174.19,0,0,1,15.8-29.39,252.06,252.06,0,0,1,16.21-21.86c4.55-5.5,7.8-9,8.39-9.59l14-3.66c-.62.66-4,4.31-8.83,10.1a263.81,263.81,0,0,0-17,23A183.56,183.56,0,0,0,84,98.9c-4.51,11.08-7.49,22.63-7.49,33.79A53.56,53.56,0,0,0,79,149.61a40.32,40.32,0,0,0,17.52,22.13A49.29,49.29,0,0,0,109.54,177.28Z"/></clipPath><clipPath id="clip-path-2"><path class="cls-1" d="M58,108.73l-8.41-2.29a30.17,30.17,0,0,1-7.94-3.38A24.62,24.62,0,0,1,30.92,89.57a32.46,32.46,0,0,1-1.56-10.31c0-6.8,1.82-13.84,4.57-20.59A111.88,111.88,0,0,1,44.08,39.8a162.72,162.72,0,0,1,10.4-14c2.93-3.54,5-5.76,5.4-6.16l8.95-2.35c-.4.42-2.6,2.76-5.67,6.48A169.37,169.37,0,0,0,52.21,38.52,118.61,118.61,0,0,0,41.53,58.4c-2.89,7.11-4.81,14.53-4.81,21.69A34.39,34.39,0,0,0,38.36,91a26,26,0,0,0,11.25,14.21A31.81,31.81,0,0,0,58,108.73Z"/></clipPath></defs><g class="cls-2"><g class="cls-2"><g class="cls-3"><path class="cls-4" d="M109.54,177.28l-13.1-3.55a47.27,47.27,0,0,1-12.37-5.27,38.42,38.42,0,0,1-16.65-21A51,51,0,0,1,65,131.39c0-10.59,2.83-21.55,7.12-32.07a174.19,174.19,0,0,1,15.8-29.39,252.06,252.06,0,0,1,16.21-21.86c4.55-5.5,7.8-9,8.39-9.59l14-3.66c-.62.66-4,4.31-8.83,10.1a263.81,263.81,0,0,0-17,23A183.56,183.56,0,0,0,84,98.9c-4.51,11.08-7.49,22.63-7.49,33.79A53.56,53.56,0,0,0,79,149.61a40.32,40.32,0,0,0,17.52,22.13,49.29,49.29,0,0,0,13,5.54"/></g></g><path class="cls-5" d="M126.47,34.82c.62.67,4,4.36,8.82,10.2a269.16,269.16,0,0,1,16.93,23.11A183.84,183.84,0,0,1,168.64,99c4.43,11,7.36,22.44,7.36,33.49a51.09,51.09,0,0,1-4.1,20.92,40.19,40.19,0,0,1-11,14.57,46.57,46.57,0,0,1-15.81,8.58,64.76,64.76,0,0,1-37.41.24,46.62,46.62,0,0,1-16-8.42,40,40,0,0,1-11.13-14.58,51,51,0,0,1-4.17-21.07c0-11.16,3-22.71,7.49-33.79a183.56,183.56,0,0,1,16.64-31,263.81,263.81,0,0,1,17-23C122.43,39.13,125.85,35.48,126.47,34.82Z"/></g><path class="cls-6" d="M109.65,176.9c-7.86-2.13-16.26-3.74-23.46-7.67a38.74,38.74,0,0,1-16-16.1c-3.64-7-5-15-4.84-22.86.31-16.71,7-32.89,15.06-47.3A231.71,231.71,0,0,1,107.22,45c1.66-1.94,3.35-3.86,5.09-5.73a5.1,5.1,0,0,0,.39-.45c-.13.07.16,0,.22-.05.55-.17,1.11-.29,1.67-.44l11.15-2.93.84-.22-.39-.66A241.2,241.2,0,0,0,109.13,55.1,221.74,221.74,0,0,0,89.35,86.28C83.68,97.29,79,109.05,77,121.33c-1.81,11.21-1.28,23.17,3.7,33.55,5.6,11.68,16.41,19.39,28.72,22.79a.4.4,0,0,0,.21-.77c-11.11-3.06-21.07-9.65-26.87-19.79S76,134.76,77.51,123.35c1.66-12.08,6-23.7,11.46-34.57A215.67,215.67,0,0,1,107.7,58.36a241.09,241.09,0,0,1,19-23.26.4.4,0,0,0-.38-.66L116.69,37a28,28,0,0,0-4.16,1.09,2.46,2.46,0,0,0-.78.66c-.71.77-1.42,1.55-2.12,2.33A236.2,236.2,0,0,0,82.17,78.41c-8.45,14.3-15.67,30.19-17.27,46.9a53.67,53.67,0,0,0,2.5,23.27,39.13,39.13,0,0,0,12.91,17.77c8.25,6.34,18.37,8.39,28.18,11.06l1,.26A.4.4,0,0,0,109.65,176.9Z"/><path class="cls-6" d="M126.19,35.1a241.7,241.7,0,0,1,18.44,22.7,211.56,211.56,0,0,1,20.28,33.63c10.37,22,18,52.6-.49,72.65-8.62,9.37-21.23,13.9-33.71,14.76-12.76.88-26.27-1.68-36.77-9.31-9.79-7.11-15.38-18.18-16.72-30.08-1.48-13.17,1.64-26.45,6.41-38.67a179.87,179.87,0,0,1,18.94-35.1,258.89,258.89,0,0,1,21.71-27.89c.82-.9,1.64-1.8,2.47-2.69.35-.37-.21-.93-.56-.56A243.07,243.07,0,0,0,107,58a205.25,205.25,0,0,0-21,35.1c-10,21.93-16.83,52,1.43,71.79,8.56,9.25,21,13.8,33.34,14.75,12.76,1,26.32-1.48,37-8.8,9.94-6.8,16.07-17.45,17.89-29.26,2-13.22-.74-26.7-5.32-39.1-4.72-12.79-11.4-24.81-18.92-36.16a264.34,264.34,0,0,0-22.07-28.8c-.88-1-1.76-2-2.66-2.94C126.4,34.17,125.85,34.73,126.19,35.1Z"/><g class="cls-2"><g class="cls-2"><g class="cls-7"><path class="cls-4" d="M58,108.73l-8.41-2.29a30.17,30.17,0,0,1-7.94-3.38A24.62,24.62,0,0,1,30.92,89.57a32.46,32.46,0,0,1-1.56-10.31c0-6.8,1.82-13.84,4.57-20.59A111.88,111.88,0,0,1,44.08,39.8a162.72,162.72,0,0,1,10.4-14c2.93-3.54,5-5.76,5.4-6.16l8.95-2.35c-.4.42-2.6,2.76-5.67,6.48A169.37,169.37,0,0,0,52.21,38.52,118.61,118.61,0,0,0,41.53,58.4c-2.89,7.11-4.81,14.53-4.81,21.69A34.39,34.39,0,0,0,38.36,91a26,26,0,0,0,11.25,14.21A31.81,31.81,0,0,0,58,108.73"/></g></g><path class="cls-5" d="M68.83,17.26c.4.43,2.6,2.8,5.66,6.55A172.61,172.61,0,0,1,85.37,38.64a118.57,118.57,0,0,1,10.54,19.8c2.84,7.06,4.72,14.4,4.72,21.5A32.84,32.84,0,0,1,98,93.37a25.81,25.81,0,0,1-7,9.36,29.93,29.93,0,0,1-10.15,5.5,41.63,41.63,0,0,1-24,.16A30,30,0,0,1,46.54,103a25.62,25.62,0,0,1-7.14-9.36,32.69,32.69,0,0,1-2.68-13.53c0-7.16,1.92-14.58,4.81-21.69A118.61,118.61,0,0,1,52.21,38.52,169.37,169.37,0,0,1,63.16,23.74C66.23,20,68.43,17.68,68.83,17.26Z"/></g><path class="cls-6" d="M58.07,108.35C53.13,107,47.84,106,43.29,103.57A24.83,24.83,0,0,1,32.91,93.25a30.37,30.37,0,0,1-3.14-14.88C30,67.64,34.38,57.25,39.54,48A148.34,148.34,0,0,1,56.65,23.8,32.45,32.45,0,0,1,60,20c.23-.19-.09,0,.05-.07a2,2,0,0,1,.42-.11l1.58-.42,6.88-1.8L68.55,17A148,148,0,0,0,44.62,50.72c-6.63,13.05-12.09,30-5.14,44,3.65,7.39,10.56,12.22,18.38,14.4a.39.39,0,0,0,.21-.76c-7.14-2-13.53-6.22-17.23-12.76S36.53,81.2,37.57,73.88C39.73,58.72,48,44.66,56.89,32.46A153.37,153.37,0,0,1,69.11,17.54a.4.4,0,0,0-.38-.66l-6.35,1.66a13.89,13.89,0,0,0-2.57.68c-.76.38-1.4,1.4-2,2a152.42,152.42,0,0,0-17.63,24c-5.47,9.28-10.13,19.6-11.09,30.44-.87,9.82,1.93,20,10,26.14,5.46,4.19,12.24,5.52,18.73,7.28A.39.39,0,0,0,58.07,108.35Z"/><path class="cls-6" d="M68.55,17.54A146.21,146.21,0,0,1,93.11,53.09c6.7,14,11.87,33.53.42,46.58-5.48,6.26-13.68,9.32-21.84,9.9s-16.9-1-23.64-5.92A27.15,27.15,0,0,1,37.34,84.31c-.91-8.42,1.08-16.89,4.13-24.69,5.81-14.87,15.4-28.46,26-40.3.53-.6,1.08-1.2,1.63-1.78.35-.37-.21-.93-.56-.56A156,156,0,0,0,56.08,32.24,130.85,130.85,0,0,0,42.49,55.17C36.15,69.28,32,88.57,43.92,101.08c5.54,5.83,13.45,8.68,21.34,9.27,8.37.64,17.3-1,24.23-6a27.78,27.78,0,0,0,11.13-18.74c1.25-8.49-.53-17.13-3.48-25.08C91.45,45.17,81.65,31.13,70.85,18.9c-.58-.65-1.15-1.29-1.74-1.92C68.76,16.6,68.21,17.16,68.55,17.54Z"/></svg>