<svg xmlns="http://www.w3.org/2000/svg" viewBox="0 0 200 200"><defs><style>.cls-1{fill:#f4f4f4;}.cls-2{fill:#d1d1d1;}.cls-3{fill:#021d49;}.cls-4{fill:#febccb;}</style></defs><g id="Capa_4" data-name="Capa 4"><path class="cls-1" d="M167.07,71.24c-.6-3.7.81-7.82-.09-11.46s1-4.43-2.48-5.11c-15.11-2.93-33.07-7.08-47.43-12.64-7.57-2.94-18.47-8.72-26.8-7-8.52,1.78-21,6.53-29.43,8.74-17.88,4.7-27.48,9.26-45.36,14a1.62,1.62,0,0,0-1.28,1.67,2.13,2.13,0,0,0-.49,1.32c-1.85,11.41-2.7,49.95-2.89,57.54-.14,5.17-.86,21.78-.4,27.52.19,2.38,1,3.33,3.08,4,13,4.36,28.48,5.71,42,8.29,11.15,2.14,28.4,9.23,39.23,4a193.21,193.21,0,0,1,42.06-14.95c10.32-2.3,28.3-4.61,31.37-17.78.77-3.31.44-6.68.15-10-.39-4.34-1.37-7.45-.62-11.75C168.93,100.26,168.27,78.66,167.07,71.24Z"/><path class="cls-2" d="M13.28,58.59,91.7,34.83l5.54.22L164.5,54.67a248,248,0,0,0-36,9.48c-18.06,6.4-34.77,11.76-38.76,11.76s-30.5-8-40.33-9.63S13.28,58.59,13.28,58.59Z"/></g><g id="Capa_2" data-name="Capa 2"><path class="cls-3" d="M166.27,55.89c.35,19.9,1,39.78,1.76,59.66q.34,9.32.68,18.64l.33-.44q-32.72,12.34-65.88,23.49-9.42,3.15-18.87,6.22c-.55.18-.32,1,.24.87q33.25-10.79,66.11-22.79,9.35-3.4,18.64-6.92a.47.47,0,0,0,.33-.43c-.7-19.89-1.54-39.77-2-59.66q-.24-9.32-.4-18.64a.45.45,0,0,0-.9,0Z"/><path class="cls-3" d="M84.53,163.46C62.77,159,40.92,155,19.17,150.55l-3.79-.78c-1.21-.25-2.91-.34-3.87-1.18s-.64-3.42-.64-4.77c0-1.58,0-3.17,0-4.76q0-8.12.19-16.22c.18-9.42.47-18.83.72-28.25q.48-18.07.51-36.15a.45.45,0,0,0-.9,0c0,20.7-.76,41.37-1.18,62.05q-.17,8.37-.23,16.73c0,3.06,0,6.12,0,9.17a3.59,3.59,0,0,0,.7,2.66,4.92,4.92,0,0,0,2.72,1.22c11,2.41,22.16,4.47,33.25,6.63,12.56,2.44,25.13,4.85,37.66,7.43.56.12.8-.75.24-.87Z"/><path class="cls-3" d="M13.16,59c20,4.89,40.25,8.68,60.2,13.74q3.69.93,7.35,1.93a45.09,45.09,0,0,0,7.16,1.58,17.79,17.79,0,0,0,6.8-.76q3.7-1.07,7.42-2.08c10.13-2.78,20.15-6,30.19-9,11.05-3.4,22.13-6.71,33.42-9.19.56-.12.33-1-.24-.87-20.06,4.41-39.45,11.35-59.18,17-2.48.7-5,1.39-7.46,2-2.33.62-4.62,1.47-7,1.89-5.07.88-10.39-1.35-15.23-2.61-9.94-2.59-20-4.84-30-7C35.53,63.2,24.43,60.85,13.4,58.16c-.56-.14-.8.73-.24.86Z"/><path class="cls-3" d="M88.81,77.61c0,11-.18,22-.32,33-.17,12.63-.36,25.26-.5,37.88-.06,4.71-.12,9.41-.12,14.11a.45.45,0,0,0,.9,0c0-9.93.18-19.86.32-29.79.17-12.93.36-25.86.5-38.79.06-5.48.12-11,.12-16.43a.45.45,0,0,0-.9,0Z"/><polygon class="cls-3" points="79.82 120.12 51.67 112.52 51.67 77.76 79.82 85.36 79.82 120.12"/><g id="q4HE96"><path class="cls-4" d="M112.69,44.83a23,23,0,0,1,3.41-12,20.15,20.15,0,0,1,5.78-6,21.49,21.49,0,0,1,31.42,7.43,40.15,40.15,0,0,1,1.7,4c.15.33.57.53.87.79.21-.28.52-.52.6-.83C158.61,29.21,168,22.76,177,22.72c7.65,0,14.56,4.75,18.53,11.08,4.66,7.44,3.82,14.82.8,22.74-6.8,17.81-23.79,29.24-38.6,39.95-.51.37-.92.88-1.45,1.21a1.2,1.2,0,0,1-1.05.1c-1.72-1.21-3.39-2.49-5.08-3.74s-3.45-2.44-5.11-3.74C133,81,119.59,69.75,114.4,54.82A29.52,29.52,0,0,1,112.69,44.83Z"/></g></g></svg>