<svg id="Capa_1" data-name="Capa 1" xmlns="http://www.w3.org/2000/svg" viewBox="0 0 200 200"><defs><style>.cls-1{fill:#b7b7b7;}.cls-2{fill:#9b9b9b;}.cls-3{fill:#d1d1d1;}.cls-4{fill:#e8e8e8;}.cls-5{fill:#828282;}.cls-6{fill:#021d49;}</style></defs><path class="cls-1" d="M46.26,102.81,76.6,120.67,144,82.16v29.15s-1.42,15.44-13.71,22.66-33,19.17-33,19.17-6,1.94-9.9.19S54,135.19,54,135.19s-7.77-6-7.77-12.87Z"/><rect class="cls-1" x="97.22" y="139.39" width="9.72" height="49.77"/><polygon class="cls-2" points="46.26 102.81 114.25 65.52 143.94 82.16 76.6 120.67 46.26 102.81"/><polygon class="cls-3" points="58.31 46.87 75.09 56.77 75.09 112.85 58.17 103.67 58.31 46.87"/><polygon class="cls-4" points="75.09 56.77 131.68 24.28 131.68 80.11 75.09 112.85 75.09 56.77"/><polygon class="cls-4" points="58.31 46.87 114.47 14.16 131.68 24.28 75.09 56.77 58.31 46.87"/><polygon class="cls-5" points="65.32 46.87 113.82 18.55 124.15 24.06 75.09 52.46 65.32 46.87"/><polygon class="cls-5" points="100.17 82.69 86.3 91.08 86.3 77.21 100.17 68.81 100.17 82.69"/><polygon class="cls-5" points="122.05 69.41 108.17 77.8 108.17 63.92 122.05 55.53 122.05 69.41"/><path class="cls-6" d="M75.29,57.11l19.13-11,30.48-17.5,7-4-.59-.34V80.35a1.74,1.74,0,0,0,0,.51c-.14-.36.43-.38-.16-.14a25.27,25.27,0,0,0-2.52,1.45l-4.55,2.62-28.58,16.4-13.16,7.56-4.6,2.64a19.75,19.75,0,0,0-2.5,1.43,1.77,1.77,0,0,1-.33.19l.6.34V56.77a.4.4,0,0,0-.79,0v56.58a.4.4,0,0,0,.59.35l19.13-11,30.48-17.5,7-4a.42.42,0,0,0,.2-.35V24.28a.41.41,0,0,0-.6-.35l-19.13,11L81.87,52.42l-7,4A.4.4,0,0,0,75.29,57.11Z"/><path class="cls-6" d="M131.88,23.93,114.67,13.82a.41.41,0,0,0-.4,0l-18.94,11L65.1,42.46l-7,4.07a.4.4,0,0,0,0,.68l16.78,9.9a.4.4,0,0,0,.4-.69L58.51,46.53v.68L87.45,30.35l19.32-11.24,6.08-3.55a13.17,13.17,0,0,0,1.51-.87c.07-.06.21-.09.27-.16-.19.24-.45-.25-.14.1a6,6,0,0,0,1.3.77l2.2,1.29,5.74,3.38,7.75,4.55a.4.4,0,0,0,.4-.69Z"/><path class="cls-6" d="M57.91,46.87v57a.41.41,0,0,0,.2.34l16.78,9.47a.4.4,0,0,0,.4-.69l-14.63-8.25L59.38,104c-.16-.1-.61-.47-.81-.46s0,.41.14.22a1.48,1.48,0,0,0,0-.42V46.87a.4.4,0,0,0-.8,0Z"/><path class="cls-6" d="M100,82.35,86.1,90.74l.59.34V78.15c0-.16.09-.69,0-.83s-.31.17-.08.16c.51,0,1.42-.86,1.84-1.12l6.85-4.14,5.07-3.06-.59-.34V82.69a.4.4,0,0,0,.79,0V68.82a.41.41,0,0,0-.6-.35l-11.49,7c-.79.48-2.52,1-2.58,2.07-.14,2.28,0,4.6,0,6.88v6.71a.4.4,0,0,0,.59.35L100.37,83A.39.39,0,0,0,100,82.35Z"/><path class="cls-6" d="M121.85,69.07,108,77.46l.6.34V64.87a2.63,2.63,0,0,0,0-.84c-.07-.11-.31.17-.08.16.51,0,1.42-.86,1.84-1.11l6.85-4.15,5.07-3.06-.59-.34V69.41a.4.4,0,0,0,.79,0V55.53a.4.4,0,0,0-.6-.34l-11.49,7c-.79.47-2.52,1-2.58,2.06-.14,2.28,0,4.6,0,6.88V77.8a.4.4,0,0,0,.59.34l13.88-8.39A.39.39,0,0,0,121.85,69.07Z"/><path class="cls-6" d="M65.21,47.21l6.21,3.59c1.06.61,2.1,1.29,3.19,1.84a.82.82,0,0,0,.78.11,18.44,18.44,0,0,0,2.66-1.52l5.56-3.18,32.28-18.48,8.65-4.95a.4.4,0,0,0,0-.69l-6.21-3.39-3.6-2c-.39-.21-.66-.46-1.09-.34a10.91,10.91,0,0,0-2.33,1.36L106,22.7,73.9,41.45l-8.69,5.08a.39.39,0,0,0,.4.68l22.18-13,16.37-9.57,6.1-3.56c1.12-.66,2.32-1.25,3.39-2,.08-.06.3-.13.35-.21s-.34-.21-.19,0,.92.5,1.18.64l2,1.09,7.16,3.92v-.69L102,36.6,75.51,51.77a1.82,1.82,0,0,0-.45.26c-.27.32-.13-.41.23.09-.14-.19-.6-.34-.8-.46l-1.77-1-7.11-4.1A.39.39,0,0,0,65.21,47.21Z"/><path class="cls-6" d="M58.11,95.8l-12,6.67a.4.4,0,0,0,0,.68l26.53,15.62L76.4,121a.41.41,0,0,0,.4,0l22.79-13,36.29-20.76,8.26-4.72a.4.4,0,0,0,0-.69l-12.26-6.88a.39.39,0,0,0-.4.68l12.27,6.89v-.69L130.6,89.33,103.29,105,80.45,118l-2.88,1.65a4.58,4.58,0,0,0-1.16.66c.21-.27.56.18,0-.22s-.89-.52-1.32-.77l-4.84-2.85L47,102.78l-.52-.31v.68l12-6.67c.45-.24.05-.93-.4-.68Z"/><path class="cls-6" d="M45.87,102.81v12.71c0,1.58,0,3.16,0,4.74a18.79,18.79,0,0,0,3.47,10.84c2.58,3.6,6.21,5.51,10,7.58l14,7.71,10,5.53a.39.39,0,0,0,.39-.68l-22-12.17c-3.11-1.72-6.65-3.29-9.28-5.73A17.92,17.92,0,0,1,46.73,122c-.15-1.63-.07-3.3-.07-4.94v-14.2a.4.4,0,0,0-.79,0Z"/><path class="cls-6" d="M76.2,120.67v11.51c0,4.14-.48,8.68,1.11,12.6a15.52,15.52,0,0,0,14.54,9.56c3.86-.09,7-1.88,10.18-3.71l23.9-13.51a37,37,0,0,0,11.62-9.77A34,34,0,0,0,144.34,107c0-8,0-16,0-24.07v-.79a.4.4,0,0,0-.79,0v23.06a36.29,36.29,0,0,1-3.13,15.85,33.26,33.26,0,0,1-13.71,14.7q-10.69,6.07-21.43,12.12c-2.31,1.31-4.6,2.67-7,3.92A14.48,14.48,0,0,1,77,139c0-1.29,0-2.59,0-3.89V120.67a.4.4,0,0,0-.79,0Z"/><path class="cls-6" d="M106.94,188.77H97.22l.39.39V154.37a3.72,3.72,0,0,0,0-1c0-.06,0-.14,0-.2.09.22-.36.24-.06.24.48,0,1.53-.87,2-1.1l3.21-1.82,4.43-2.5-.6-.34v41.51a.4.4,0,0,0,.79,0V147.65a.39.39,0,0,0-.59-.34L97,152.8a.41.41,0,0,0-.2.34v36a.4.4,0,0,0,.4.4h9.72A.4.4,0,0,0,106.94,188.77Z"/></svg>