<svg id="Capa_1" data-name="Capa 1" xmlns="http://www.w3.org/2000/svg" viewBox="0 0 200 200"><defs><style>.cls-1{fill:#c1c1c1;}.cls-2{fill:#f2f2f2;}.cls-3{fill:#6196d6;}.cls-4{fill:#97b8e8;}.cls-5{fill:#021d49;}</style></defs><path class="cls-1" d="M46.54,14.59l11-1.75a12.34,12.34,0,0,1,3.93,0l93.11,15a15.35,15.35,0,0,1,12.78,16.52L155.33,178a8.55,8.55,0,0,1-3.66,6.27l-3.91,2.69"/><path class="cls-2" d="M47.76,14.66,144.62,31a14.61,14.61,0,0,1,12.16,15.35L148,183.17a5.94,5.94,0,0,1-8.81,4.82L51.56,139.27a11.4,11.4,0,0,1-5.85-9.5L41.32,20.33A5.53,5.53,0,0,1,47.76,14.66Z"/><polygon class="cls-3" points="55.94 62.48 59.96 61.41 72.97 64.75 72.31 44.31 76.6 42.86 111.66 51.57 111.66 77.12 135.23 85.06 135.23 128.4 130.94 130.86 110.27 121.53 110.27 141.08 106.64 143.22 89.34 130.86 92.64 100.33 65.71 71.31 55.94 62.48"/><polygon class="cls-4" points="72.31 44.31 107.17 53.4 107.17 79.39 130.94 87.21 130.94 130.86 106.64 121.53 106.64 143.22 74.42 128.34 74.42 107.14 55.94 99.32 55.94 62.48 73.1 68.03 72.31 44.31"/><path class="cls-5" d="M72.19,44.75l30.5,8,4.36,1.13-.33-.43v26a.46.46,0,0,0,.33.43l20.78,6.84,3,1-.33-.43v43.65l.57-.43-21.22-8.15-3.08-1.19a.45.45,0,0,0-.57.44v21.69l.68-.38-22-10.17-6.21-2.87c-1.18-.54-2.38-1.25-3.61-1.67-.77-.26.1,0-.18.16a5.46,5.46,0,0,0,0-1.34V107.14a.44.44,0,0,0-.22-.39l-10.73-4.53-6.28-2.66c-.13-.06-1.31-.69-1.42-.6.2-.15.08.71.17,0a33.14,33.14,0,0,0,0-3.86V62.48l-.57.44L73,68.47a.45.45,0,0,0,.57-.44l-.69-20.77-.1-2.95c0-.57-.92-.58-.9,0l.69,20.78.1,2.94.57-.43L56.06,62.05a.45.45,0,0,0-.57.43V99.32a.44.44,0,0,0,.22.39l16.59,7,1.39.59c.08,0,.23.14.33.14s.1.06.12.05c.17-.13-1,.3-.17-.36-.19.15,0,1.87,0,2.1v19.09a.46.46,0,0,0,.22.39l28.21,13,4,1.85a.46.46,0,0,0,.68-.39V121.53l-.57.43,21.21,8.15,3.09,1.18a.45.45,0,0,0,.57-.43V87.21a.45.45,0,0,0-.33-.43l-20.78-6.84-3-1,.33.44v-26a.46.46,0,0,0-.33-.44L76.79,45l-4.36-1.14A.45.45,0,0,0,72.19,44.75Z"/><path class="cls-5" d="M56.06,62.92l3.64-1c.27-.07.49,0,.15-.09a.86.86,0,0,1,.23.06c.39.14.8.22,1.19.33l9,2.48,2.58.71a.45.45,0,0,0,.24-.86l-6.85-1.89-4.54-1.25A5.61,5.61,0,0,0,59.81,61a16.47,16.47,0,0,0-2.06.55l-1.93.52a.45.45,0,0,0,.24.87Z"/><path class="cls-5" d="M72.43,44.75c1.33-.45,2.77-.79,4-1.37.4-.18-.2-.12.18,0s.49.12.74.19l7.25,1.8,21.46,5.32L111.54,52l-.33-.43V77.12a.46.46,0,0,0,.33.43l20.65,7,2.92,1-.33-.44v41.21c0,.45-.24,1.72,0,2.11,0-.06.29-.3.17-.34s-.36.21-.4.23c-.47.22-.92.53-1.37.79l-2.47,1.41a.45.45,0,0,0,.45.78l4.29-2.46a.45.45,0,0,0,.23-.39V85.06a.46.46,0,0,0-.33-.43l-20.65-7-2.92-1,.33.44V51.57a.47.47,0,0,0-.33-.44l-33.87-8.4a4.07,4.07,0,0,0-1.45-.29,10.2,10.2,0,0,0-2.12.72l-2.15.72c-.55.19-.31,1,.24.87Z"/><path class="cls-5" d="M107.4,79.78l3.93-2,.56-.28c.51-.26.06-1-.46-.77l-3.94,2-.55.28c-.52.26-.06,1,.46.78Z"/><path class="cls-5" d="M131.16,87.6l3.76-1.88.53-.27a.45.45,0,0,0,.17-.61.46.46,0,0,0-.62-.16l-3.76,1.87-.53.27a.45.45,0,0,0,.45.78Z"/><path class="cls-5" d="M106.87,143.61l2-1.17c.47-.28,1.46-.61,1.77-1.09a1.42,1.42,0,0,0,.1-.82V122.92a.45.45,0,0,0-.9,0v18.16l.22-.39-3.63,2.15a.45.45,0,0,0,.46.77Z"/><path class="cls-5" d="M47.64,15.1,61,17.35l30.18,5.09,32.22,5.44,19.86,3.36c3.78.64,7.24,2,9.79,5.05a15,15,0,0,1,3.25,10.93l-1,15.16-1.81,28.3-2.16,33.66-2,31.64-1.4,21.84-.31,4.84a6.84,6.84,0,0,1-.52,2.44,5.57,5.57,0,0,1-7.7,2.47c-4.34-2.26-8.56-4.76-12.84-7.13l-27-15L70.88,149.5l-17.75-9.88-1.27-.7a11.16,11.16,0,0,1-5.53-7.62,32.61,32.61,0,0,1-.29-4.53l-.87-21.72L43.86,72.3,42.59,40.61,41.83,21.7c0-.43,0-.86-.06-1.29a5.15,5.15,0,0,1,5.87-5.31c.56.08.81-.79.24-.87a6,6,0,0,0-7,5.41,12.36,12.36,0,0,0,0,1.49l.26,6.4L42.22,54l1.37,34.19,1.19,29.52.36,9a41.19,41.19,0,0,0,.24,4.31c.6,4.23,3.35,7.22,6.93,9.21l6.41,3.56,24.76,13.77,29.93,16.64,21.76,12.1c1.26.7,2.5,1.42,3.77,2.09a6.47,6.47,0,0,0,9.53-5.36c.31-4.28.55-8.58.82-12.86l1.77-27.56,2.18-34,2.09-32.6,1.49-23.24.36-5.53a15.91,15.91,0,0,0-2.84-10.65,15.87,15.87,0,0,0-10.5-6.09l-6.92-1.17L109,24.55l-33.7-5.69-23.89-4-3.51-.59C47.31,14.13,47.07,15,47.64,15.1Z"/><path class="cls-5" d="M46.66,15,53.24,14c2.65-.42,5.38-1.09,8.08-.7,1.6.24,3.21.52,4.81.78l28.69,4.61,36.26,5.83,22.4,3.61c5.41.87,10.09,3.88,12.28,9.07a18,18,0,0,1,1,8.95L164.9,66.3l-3,33.81-3.34,37.17-2.64,29.46-.77,8.52c-.18,2.08-.22,4.15-1.31,6-1.36,2.35-4.09,3.75-6.27,5.26-.48.32,0,1.1.45.77,2.12-1.46,4.69-2.81,6.2-4.95a9.71,9.71,0,0,0,1.62-4.75c.17-1.81.33-3.62.49-5.43l2.33-26,3.28-36.57,3.25-36.15,2.21-24.64c.13-1.48.27-3,.4-4.45a16,16,0,0,0-10.42-16.34,35.28,35.28,0,0,0-6.45-1.3l-11.53-1.86-35.21-5.66L71.2,14l-8.57-1.38c-.54-.09-1.08-.19-1.63-.25-2.69-.33-5.48.37-8.12.79l-6.46,1c-.57.09-.33,1,.24.87Z"/></svg>