<svg xmlns="http://www.w3.org/2000/svg" viewBox="0 0 200 200"><defs><style>.cls-1{fill:#febccb;}.cls-2{fill:#021d49;}.cls-3{fill:#f4f4f4;}</style></defs><g id="Capa_3" data-name="Capa 3"><path class="cls-1" d="M81.9,57.78S75.75,39,74.27,26.87c-.39-3.17.89-6.36,1.33-8.18.12-.48-1.07-.42-.88-.77,0,0-23,24.63-21,54.37C53.69,72.29,77.82,55.21,81.9,57.78Z"/><path class="cls-1" d="M53.69,72.33h0s0,0,0,0A61.11,61.11,0,0,1,56.1,51.24a83.24,83.24,0,0,1,7.32-17.3,90.1,90.1,0,0,1,11.27-16s0,0,0,0,0,0,0,.05a.11.11,0,0,0,0,.08c0,.07.2.13.36.19s.61.2.54.49-.23.82-.36,1.29a17.27,17.27,0,0,0-1,6.87,152.24,152.24,0,0,0,4.36,20c1.71,6.14,3.25,10.85,3.26,10.9s0,0,0,0h0c-4-2.53-27.93,14.33-28.17,14.5C53.71,72.33,53.7,72.33,53.69,72.33Zm21-54.3A91.41,91.41,0,0,0,63.49,34a82.78,82.78,0,0,0-7.32,17.28,60.81,60.81,0,0,0-2.44,21c.62-.44,6.38-4.47,12.52-8.18C74.8,58.88,80,56.75,81.83,57.7c-.22-.69-1.66-5.15-3.23-10.81a153.66,153.66,0,0,1-4.37-20,17.43,17.43,0,0,1,1-6.9c.14-.47.27-.91.36-1.28,0-.21-.17-.3-.49-.41s-.36-.13-.4-.24Z"/><path class="cls-2" d="M53.69,72.9a.61.61,0,0,1-.6-.57c-1-15.5,4.52-29.55,9.38-38.6A90.13,90.13,0,0,1,73.35,17.64a.62.62,0,0,1,.37-.2l3-.4a.62.62,0,0,1,.68.52.6.6,0,0,1-.52.68l-2.78.37c-1.9,2.2-21.68,25.77-19.81,53.64a.6.6,0,0,1-.57.64Z"/><path class="cls-1" d="M84.9,57.38S69.1,31.74,76.81,17.64c0,0-22.11,24.51-20.11,54.25C56.7,71.89,80.83,54.82,84.9,57.38Z"/><path class="cls-1" d="M56.7,71.93h0a.05.05,0,0,1,0,0,63,63,0,0,1,2.3-21A84.69,84.69,0,0,1,66,33.6a88.81,88.81,0,0,1,10.81-16s0,0,0,0a0,0,0,0,1,0,.05c-1.75,3.21-2.42,7.29-2,12.14a52.35,52.35,0,0,0,3.14,13,89.92,89.92,0,0,0,6.94,14.57.07.07,0,0,1,0,0h-.05a2,2,0,0,0-1.11-.26c-6.11,0-26.83,14.6-27,14.76Zm19.92-54A91.33,91.33,0,0,0,66,33.64a84,84,0,0,0-7,17.24,63.25,63.25,0,0,0-2.3,20.94c.62-.44,6.38-4.47,12.52-8.18C77.74,58.52,83,56.38,84.8,57.28a91.07,91.07,0,0,1-6.87-14.47,51.9,51.9,0,0,1-3.15-13C74.35,25.09,75,21.09,76.62,17.92Z"/><path class="cls-2" d="M56.7,72.5a.62.62,0,0,1-.61-.57c-1-15.5,4.53-29.55,9.38-38.6A89.22,89.22,0,0,1,76.36,17.24a.6.6,0,0,1,.8-.09.61.61,0,0,1,.18.78c-7.46,13.63,7.92,38.88,8.08,39.14a.6.6,0,0,1-1,.63A90.91,90.91,0,0,1,77.4,43c-3.26-8.91-4.13-16.25-2.61-21.91-5.67,7.43-19,27.61-17.49,50.75a.62.62,0,0,1-.56.65Z"/><path class="cls-1" d="M130.36,60.1s20.28-22.26,15.32-37.55c0,0,17.18,28.19,9.7,57C155.38,79.59,134.84,58.34,130.36,60.1Z"/><path class="cls-1" d="M155.38,79.63h0c-.05-.06-5.2-5.38-10.83-10.41-7.45-6.65-12.34-9.79-14.16-9.07,0,0,0,0,0,0a0,0,0,0,1,0-.05,91,91,0,0,0,9.52-13,52.22,52.22,0,0,0,5.49-12.18c1.33-4.68,1.43-8.82.3-12.29a.08.08,0,0,1,0-.05,0,0,0,0,1,.05,0,89.47,89.47,0,0,1,7.66,17.71,84.67,84.67,0,0,1,3.69,18.26,63,63,0,0,1-1.64,21.1s0,0,0,0ZM131,60c2.2,0,6.77,3.09,13.61,9.2,5.34,4.77,10.25,9.81,10.79,10.35a62.89,62.89,0,0,0,1.61-21,84,84,0,0,0-3.68-18.25,90.22,90.22,0,0,0-7.49-17.4c1,3.42.9,7.47-.39,12a52.28,52.28,0,0,1-5.51,12.2A91.69,91.69,0,0,1,130.48,60,1.88,1.88,0,0,1,131,60Z"/><path class="cls-2" d="M155.39,80.19a.44.44,0,0,1-.16,0,.6.6,0,0,1-.43-.73C160.61,57,151.22,34.68,147,26.32c.45,5.85-1.77,12.9-6.62,21a90.82,90.82,0,0,1-9.6,13.14.6.6,0,1,1-.89-.81c.2-.22,20-22.19,15.19-37a.61.61,0,0,1,1.1-.5,90,90,0,0,1,7.71,17.83c3.09,9.8,6,24.63,2.06,39.67A.61.61,0,0,1,155.39,80.19Z"/><circle class="cls-3" cx="96.54" cy="117.87" r="63.8"/><path class="cls-2" d="M96.54,182.27A64.41,64.41,0,1,1,161,117.87,64.47,64.47,0,0,1,96.54,182.27Zm0-127.6a63.2,63.2,0,1,0,63.2,63.2A63.27,63.27,0,0,0,96.54,54.67Z"/><circle class="cls-3" cx="103.46" cy="117.87" r="63.8"/><path class="cls-2" d="M103.46,182.27a64.41,64.41,0,1,1,64.4-64.4A64.48,64.48,0,0,1,103.46,182.27Zm0-127.6a63.2,63.2,0,1,0,63.19,63.2A63.27,63.27,0,0,0,103.46,54.67Z"/><path class="cls-2" d="M79.94,105.41a9.66,9.66,0,0,1-9.65-9.66,1.5,1.5,0,0,1,3,0,6.65,6.65,0,1,0,13.29,0,1.51,1.51,0,0,1,3,0A9.66,9.66,0,0,1,79.94,105.41Z"/><path class="cls-2" d="M127.18,105.41a9.66,9.66,0,0,1-9.65-9.66,1.51,1.51,0,0,1,3,0,6.65,6.65,0,1,0,13.29,0,1.5,1.5,0,0,1,3,0A9.66,9.66,0,0,1,127.18,105.41Z"/><path class="cls-2" d="M103.46,151.52a42.26,42.26,0,0,1-36-20A1.5,1.5,0,1,1,70,130a39.45,39.45,0,0,0,66.89,0,1.5,1.5,0,0,1,2.55,1.59A42.24,42.24,0,0,1,103.46,151.52Z"/></g></svg>